<svg width="18" height="18" viewBox="0 0 18 18" fill="none" xmlns="http://www.w3.org/2000/svg">
<g id="01 align center">
<path id="Vector" d="M9.75 1.5V6.75H1.5V2.25C1.5 2.05109 1.57902 1.86032 1.71967 1.71967C1.86032 1.57902 2.05109 1.5 2.25 1.5H9.75ZM11.25 0H2.25C1.65326 0 1.08097 0.237053 0.65901 0.65901C0.237053 1.08097 0 1.65326 0 2.25L0 8.25H11.25V0Z" fill="#777DAA"/>
<path id="Vector_2" d="M15.7497 1.5C15.9487 1.5 16.1394 1.57902 16.2801 1.71967C16.4207 1.86032 16.4997 2.05109 16.4997 2.25V6.75H14.2497V1.5H15.7497ZM15.7497 0H12.7498V8.25H17.9997V2.25C17.9997 1.65326 17.7627 1.08097 17.3407 0.65901C16.9188 0.237053 16.3465 0 15.7497 0V0Z" fill="#777DAA"/>
<path id="Vector_3" d="M3.75 11.25V16.5H2.25C2.05109 16.5 1.86032 16.421 1.71967 16.2803C1.57902 16.1397 1.5 15.9489 1.5 15.75V11.25H3.75ZM5.25 9.75H0V15.75C0 16.3467 0.237053 16.919 0.65901 17.341C1.08097 17.7629 1.65326 18 2.25 18H5.25V9.75Z" fill="#777DAA"/>
<path id="Vector_4" d="M16.5 11.25V15.75C16.5 15.9489 16.421 16.1397 16.2803 16.2803C16.1397 16.421 15.9489 16.5 15.75 16.5H8.25V11.25H16.5ZM18 9.75H6.75V18H15.75C16.3467 18 16.919 17.7629 17.341 17.341C17.7629 16.919 18 16.3467 18 15.75V9.75Z" fill="#777DAA"/>
</g>
</svg>
