<svg width="28" height="29" viewBox="0 0 28 29" fill="none" xmlns="http://www.w3.org/2000/svg">
<g id="01 align center">
<path id="Vector" d="M15.1667 2.83333V11H2.33333V4C2.33333 3.69058 2.45625 3.39383 2.67504 3.17504C2.89383 2.95625 3.19058 2.83333 3.5 2.83333H15.1667ZM17.5 0.5H3.5C2.57174 0.5 1.6815 0.868749 1.02513 1.52513C0.368749 2.1815 0 3.07174 0 4L0 13.3333H17.5V0.5Z" fill="#565D8F"/>
<path id="Vector_2" d="M24.4997 2.83333C24.8091 2.83333 25.1058 2.95625 25.3246 3.17504C25.5434 3.39383 25.6663 3.69058 25.6663 4V11H22.1663V2.83333H24.4997ZM24.4997 0.5H19.833V13.3333H27.9996V4C27.9996 3.07174 27.6309 2.1815 26.9745 1.52513C26.3181 0.868749 25.4279 0.5 24.4997 0.5V0.5Z" fill="#565D8F"/>
<path id="Vector_3" d="M5.83333 18.0003V26.167H3.5C3.19058 26.167 2.89383 26.0441 2.67504 25.8253C2.45625 25.6065 2.33333 25.3097 2.33333 25.0003V18.0003H5.83333ZM8.16667 15.667H0V25.0003C0 25.9286 0.368749 26.8188 1.02513 27.4752C1.6815 28.1316 2.57174 28.5003 3.5 28.5003H8.16667V15.667Z" fill="#565D8F"/>
<path id="Vector_4" d="M25.6667 18.0003V25.0003C25.6667 25.3097 25.5438 25.6065 25.325 25.8253C25.1062 26.0441 24.8094 26.167 24.5 26.167H12.8333V18.0003H25.6667ZM28 15.667H10.5V28.5003H24.5C25.4283 28.5003 26.3185 28.1316 26.9749 27.4752C27.6313 26.8188 28 25.9286 28 25.0003V15.667Z" fill="#565D8F"/>
</g>
</svg>
