<svg width="29" height="29" viewBox="0 0 29 29" fill="none" xmlns="http://www.w3.org/2000/svg">
<g clip-path="url(#clip0_1965_537)">
<path d="M15.6667 2.83333V11H2.83333V4C2.83333 3.69058 2.95625 3.39383 3.17504 3.17504C3.39383 2.95625 3.69058 2.83333 4 2.83333H15.6667ZM18 0.5H4C3.07174 0.5 2.1815 0.868749 1.52513 1.52513C0.868749 2.1815 0.5 3.07174 0.5 4L0.5 13.3333H18V0.5Z" fill="#565D8F"/>
<path d="M24.9997 2.83333C25.3091 2.83333 25.6058 2.95625 25.8246 3.17504C26.0434 3.39383 26.1663 3.69058 26.1663 4V11H22.6663V2.83333H24.9997ZM24.9997 0.5H20.333V13.3333H28.4996V4C28.4996 3.07174 28.1309 2.1815 27.4745 1.52513C26.8181 0.868749 25.9279 0.5 24.9997 0.5V0.5Z" fill="#565D8F"/>
<path d="M6.33333 18.0003V26.167H4C3.69058 26.167 3.39383 26.0441 3.17504 25.8253C2.95625 25.6065 2.83333 25.3097 2.83333 25.0003V18.0003H6.33333ZM8.66667 15.667H0.5V25.0003C0.5 25.9286 0.868749 26.8188 1.52513 27.4752C2.1815 28.1316 3.07174 28.5003 4 28.5003H8.66667V15.667Z" fill="#565D8F"/>
<path d="M26.1667 18.0003V25.0003C26.1667 25.3097 26.0438 25.6065 25.825 25.8253C25.6062 26.0441 25.3094 26.167 25 26.167H13.3333V18.0003H26.1667ZM28.5 15.667H11V28.5003H25C25.9283 28.5003 26.8185 28.1316 27.4749 27.4752C28.1313 26.8188 28.5 25.9286 28.5 25.0003V15.667Z" fill="#565D8F"/>
</g>
<defs>
<clipPath id="clip0_1965_537">
<rect width="28" height="28" fill="white" transform="translate(0.5 0.5)"/>
</clipPath>
</defs>
</svg>
