<svg width="15" height="16" viewBox="0 0 15 16" fill="none" xmlns="http://www.w3.org/2000/svg">
<g id="fi-rr-pencil" clip-path="url(#clip0_1458_1774)">
<path id="Vector" d="M14.0451 1.48858C13.6273 1.0813 13.061 0.852539 12.4705 0.852539C11.8801 0.852539 11.3138 1.0813 10.896 1.48858L0.900374 11.247C0.614133 11.5249 0.387174 11.8554 0.232628 12.2195C0.0780822 12.5835 -0.00098209 12.9739 9.20721e-06 13.368V14.5998C9.20721e-06 14.7589 0.0647598 14.9115 0.180017 15.024C0.295273 15.1366 0.451595 15.1998 0.614593 15.1998H1.87633C2.27997 15.2009 2.67982 15.1238 3.05274 14.973C3.42566 14.8223 3.76424 14.6008 4.04888 14.3214L14.0451 4.56238C14.4621 4.15449 14.6963 3.60176 14.6963 3.02548C14.6963 2.4492 14.4621 1.89646 14.0451 1.48858ZM3.17986 13.473C2.83324 13.8091 2.3649 13.9984 1.87633 13.9998H1.22918V13.368C1.22855 13.1315 1.27598 12.8973 1.36871 12.6788C1.46144 12.4604 1.59763 12.2621 1.76939 12.0954L9.3552 4.68958L10.7687 6.06958L3.17986 13.473ZM13.1754 3.71398L11.6353 5.21818L10.2218 3.84118L11.7625 2.33698C11.8553 2.24656 11.9655 2.17488 12.0867 2.12602C12.2079 2.07717 12.3377 2.05209 12.4688 2.05223C12.6 2.05237 12.7298 2.07772 12.8508 2.12683C12.9719 2.17595 13.0819 2.24786 13.1745 2.33848C13.2671 2.42909 13.3406 2.53662 13.3906 2.65494C13.4407 2.77325 13.4663 2.90003 13.4662 3.02804C13.4661 3.15604 13.4401 3.28277 13.3898 3.40098C13.3395 3.51918 13.2658 3.62656 13.173 3.71698L13.1754 3.71398Z" fill="#8087B9"/>
</g>
<defs>
<clipPath id="clip0_1458_1774">
<rect width="14.75" height="14.4" fill="white" transform="translate(0 0.799805)"/>
</clipPath>
</defs>
</svg>
