<svg width="100" height="100" viewBox="0 0 100 100" fill="none" xmlns="http://www.w3.org/2000/svg">
<g id="fi-rs-bank" clip-path="url(#clip0_1343_282)">
<path id="Vector" d="M2.14182e-07 91.6667H100V100H2.14182e-07V91.6667ZM100 32.9542V41.6667H87.5V75H95.8333V83.3334H4.16667V75H12.5V41.6667H2.14182e-07V32.9542C-0.000415436 30.7085 0.604146 28.5042 1.75014 26.573C2.89613 24.6417 4.54122 23.0549 6.5125 21.9792L44.0125 1.52504C45.8482 0.520285 47.9073 -0.00634766 50 -0.00634766C52.0927 -0.00634766 54.1518 0.520285 55.9875 1.52504L93.4875 21.9792C95.4588 23.0549 97.1039 24.6417 98.2499 26.573C99.3959 28.5042 100 30.7085 100 32.9542ZM20.8333 75H33.3333V41.6667H20.8333V75ZM41.6667 41.6667V75H58.3333V41.6667H41.6667ZM79.1667 41.6667H66.6667V75H79.1667V41.6667ZM91.6667 32.9542C91.6668 32.2057 91.4653 31.4709 91.0833 30.8271C90.7013 30.1834 90.1529 29.6544 89.4958 29.2959L51.9958 8.8417C51.3836 8.50765 50.6974 8.3326 50 8.3326C49.3026 8.3326 48.6164 8.50765 48.0042 8.8417L10.5042 29.2959C9.84707 29.6544 9.29871 30.1834 8.91671 30.8271C8.53471 31.4709 8.33319 32.2057 8.33333 32.9542V33.3334H91.6667V32.9542Z" fill="#777DAA"/>
</g>
<defs>
<clipPath id="clip0_1343_282">
<rect width="100" height="100" fill="white"/>
</clipPath>
</defs>
</svg>
