<svg width="85" height="81" viewBox="0 0 85 81" fill="none" xmlns="http://www.w3.org/2000/svg">
<g id="Group 4">
<g id="Camada_2">
<g id="Group">
<path id="Vector" d="M73.2558 0L70.103 2.85811L69.6713 7.90916L65.1198 7.80738L61.273 11.6288L61.802 15.6446L56.8135 15.9324L56.6209 20.6802L48.4088 22.5174L48.5495 27.5417L44.3291 31.6932L40.222 28.9605C39.4708 28.4608 38.4446 28.9389 38.3747 29.82L37.4966 35.5948C33.8952 33.626 29.7415 32.5013 25.3159 32.4982C11.5947 32.49 0.384197 43.3724 0.378907 56.7068C0.374675 70.0844 11.5323 80.9298 25.2979 80.9298C39.0392 80.9298 50.1524 70.1831 50.2169 56.8302C50.2328 53.4642 49.5419 50.2565 48.2797 47.3398H53.7358C54.7779 47.4385 55.3683 46.4937 54.7991 45.6404L52.2102 41.7593L83.8146 10.4311C84.0178 10.2296 84.1331 9.96021 84.1363 9.67749C84.15 8.30086 84.187 4.0651 84.149 2.41397C84.1394 2.00582 83.839 1.65935 83.4263 1.58019L73.2558 0Z" fill="#00074A"/>
<path id="Vector_2" d="M26.575 59.5556C28.4845 59.5556 30.0325 58.0513 30.0325 56.1958C30.0325 54.3402 28.4845 52.8359 26.575 52.8359C24.6654 52.8359 23.1174 54.3402 23.1174 56.1958C23.1174 58.0513 24.6654 59.5556 26.575 59.5556Z" fill="white"/>
</g>
</g>
<g id="Camada_5">
<g id="Group_2">
<g id="Group_3">
<path id="Vector_3" d="M27.0747 65.7676C26.9859 65.8114 26.8725 65.8631 26.7378 65.9152C26.7633 65.8625 26.7862 65.8119 26.8064 65.7642C26.8358 65.695 26.8579 65.6354 26.8741 65.5864C26.3551 65.8254 25.2148 66.207 23.9541 65.7008C22.7364 65.2121 22.2003 64.2148 21.9982 63.7073C21.953 63.7791 21.8992 63.8726 21.8454 63.9846C21.7919 63.8683 21.7514 63.7656 21.7217 63.6826C21.5004 64.0703 21.1906 64.8122 21.3959 65.707C21.5218 66.255 21.817 66.7474 22.2243 67.1258C22.2328 67.134 22.2338 67.1473 22.2254 67.1566C22.0772 67.3067 21.8931 67.4589 21.8339 67.5061C21.8287 67.5061 21.8241 67.5061 21.8198 67.5062C21.8119 67.5063 21.8047 67.5065 21.7958 67.5072C16.0932 63.3465 17.549 56.4911 18.0473 55.3468C18.059 55.3437 18.0706 55.3417 18.0833 55.3386C18.0957 55.3091 18.1084 55.2793 18.1213 55.2491C18.1305 55.2277 18.1397 55.2061 18.1489 55.1844C18.1499 55.1844 18.151 55.1834 18.1521 55.1823C18.1521 55.1812 18.1524 55.1797 18.1527 55.1782C18.1529 55.1771 18.1531 55.176 18.1531 55.1751C18.2018 55.0631 18.2547 54.9459 18.3129 54.8256C18.3171 54.8174 18.3256 54.8122 18.3362 54.8132C18.5378 54.8324 18.7399 54.8513 18.9419 54.8701C19.5086 54.9229 20.0752 54.9757 20.632 55.0363C20.6426 55.0374 20.65 55.0456 20.6511 55.0559C20.7135 55.6419 20.942 56.0696 20.9981 56.1703C21.3548 56.8133 22.1739 57.3278 22.6583 57.5349C22.6181 57.4447 22.5715 57.33 22.526 57.1946C22.5742 57.2199 22.6207 57.243 22.6649 57.2638C22.7355 57.297 22.7967 57.3226 22.8473 57.3415C22.6331 56.8206 22.3162 55.6958 22.9088 54.5089C23.4829 53.3596 24.5374 52.8995 25.0722 52.7329C24.9986 52.6836 24.9033 52.6249 24.7889 52.5656C24.9129 52.5196 25.0225 52.4855 25.1111 52.4609C24.7246 52.2229 23.984 51.8817 23.058 52.0271C22.4285 52.1258 21.8582 52.426 21.4276 52.8629C21.4202 52.8712 21.4075 52.8722 21.3991 52.866L20.3666 52.1458C20.3659 52.1466 20.3652 52.1473 20.3645 52.1481C20.3652 52.1473 20.3659 52.1466 20.3666 52.1458L20.3427 52.1291L20.3092 52.1057L20.1802 52.0158C20.1697 52.0086 20.1675 51.9932 20.176 51.9839C20.2137 51.9407 20.2513 51.8981 20.2888 51.8562C20.293 51.8515 20.2972 51.8468 20.3013 51.8422C20.3099 51.8326 20.3186 51.8231 20.3272 51.8135C20.3259 51.8126 20.3246 51.8117 20.3233 51.8108L20.3272 51.8135C21.2297 50.8143 22.0912 50.1806 22.5512 49.8671C22.5512 49.8671 24.3107 48.6683 26.6933 48.0319C31.5209 46.7416 35.6302 48.1296 36.7421 48.5244C36.7463 48.5254 36.7506 48.5264 36.7548 48.5254C36.7548 48.5254 36.7665 48.5233 36.7707 48.51C37.8498 45.3105 37.0764 40.6193 37.0764 40.6193L37.0742 40.6102C36.662 38.9228 36.4427 38.0253 35.8587 36.8082C35.3054 35.6546 33.7226 32.4686 30.0492 30.4422C27.4064 28.9833 25.0756 28.7366 22.1153 28.7787C20.0586 28.8075 17.7088 29.1745 15.2003 30.1677C15.1928 30.1708 15.1886 30.1769 15.1876 30.1852C15.0173 31.3598 14.8473 32.5347 14.6773 33.7097C14.5071 34.8855 14.337 36.0613 14.1666 37.2369H14.1645C14.1592 37.2379 14.155 37.2379 14.155 37.2379C13.6979 37.2924 13.2408 37.386 12.8018 37.5011C9.44212 38.1107 6.70542 40.7758 5.72425 41.7313L5.72378 41.7317C1.81343 45.5429 -0.0454739 51.4226 0.380899 56.7163L27.0747 65.7676ZM27.0747 65.7676C26.8894 66.2504 26.4114 67.0707 25.7749 67.4547M27.1228 65.4592C27.1151 65.4636 27.1064 65.4686 27.0967 65.4739L27.1337 65.4782L27.0967 65.4739C27.055 65.4972 26.9961 65.5284 26.9219 65.5639C26.9517 65.6397 27.0216 65.6901 27.0986 65.7025C27.1252 65.6267 27.1433 65.5615 27.1523 65.5106C27.1523 65.5104 27.1524 65.5102 27.1524 65.5099C27.1542 65.4996 27.1556 65.4899 27.1567 65.4808C27.1588 65.4623 27.1387 65.4499 27.1228 65.4592ZM0.630092 56.6962C0.208889 51.4667 2.048 45.6634 5.8982 41.9108L24.0261 68.8139C24.3593 68.9609 24.7011 69.0935 25.0566 69.2056L24.9813 69.444C24.9813 69.444 24.9813 69.444 24.9814 69.444C25.6288 69.6484 28.1032 70.3902 31.1971 69.6901C32.0268 69.503 33.97 69.0415 35.7798 67.5478L35.7798 67.5478C36.5778 66.8887 37.3099 66.0613 37.8346 65.3976C38.0976 65.065 38.3106 64.7707 38.4559 64.5553C38.5282 64.4482 38.5856 64.3579 38.6243 64.2909C38.643 64.2584 38.6608 64.2256 38.6737 64.1964C38.6793 64.1838 38.6887 64.1612 38.6952 64.1346C39.0546 63.4755 39.4869 62.5241 39.7573 61.3243C39.6416 65.7622 37.7428 68.6891 37.538 68.9952C37.5247 69.0116 37.5148 69.0282 37.5072 69.0438C34.4141 74.688 27.3497 77.2417 21.564 76.9997C10.7171 76.5457 1.43842 66.7267 0.630092 56.6962Z" fill="#18C64F" stroke="#00074A" stroke-width="0.5"/>
</g>
</g>
</g>
<g id="Camada_3">
<g id="Group_4">
<path id="Vector_4" d="M26.575 44.7769C29.5234 44.7769 31.9136 42.4543 31.9136 39.5891C31.9136 36.724 29.5234 34.4014 26.575 34.4014C23.6265 34.4014 21.2363 36.724 21.2363 39.5891C21.2363 42.4543 23.6265 44.7769 26.575 44.7769Z" fill="#00074A" stroke="#00074A" stroke-width="0.5" stroke-miterlimit="10"/>
<path id="Vector_5" d="M31.1804 42.2139C30.2229 43.7992 28.4677 44.7769 26.575 44.7769C23.6464 44.7769 21.2363 42.4349 21.2363 39.5891C21.2363 37.0106 23.2137 34.8043 25.8418 34.4507C25.7445 34.6676 24.6579 37.1957 26.2089 39.6138C27.8805 42.2221 31.0249 42.2169 31.1804 42.2139Z" fill="white" stroke="#00074A" stroke-width="0.5" stroke-miterlimit="10"/>
<path id="Vector_6" d="M27.8191 36.1829C27.962 37.4115 26.3401 38.2659 25.4291 38.2186C25.3328 38.2134 25.0906 38.2021 24.8366 38.0623C24.4886 37.8711 24.2632 37.5164 24.0982 37.0445C23.8114 36.221 24.3923 34.8104 25.6312 34.6212C26.7072 34.4557 27.7155 35.2885 27.8191 36.1829Z" fill="white"/>
</g>
</g>
<g id="Camada_4">
<path id="Vector_7" d="M20.1915 44.493C20.8347 44.1615 20.9065 43.0689 20.3519 42.0526C19.7973 41.0362 18.8262 40.481 18.183 40.8124C17.5398 41.1439 17.4679 42.2365 18.0225 43.2529C18.5772 44.2692 19.5482 44.8244 20.1915 44.493Z" fill="#C6191A" stroke="#00074A" stroke-width="0.5" stroke-miterlimit="10"/>
</g>
</g>
</svg>
