<svg width="374" height="365" viewBox="0 0 374 365" fill="none" xmlns="http://www.w3.org/2000/svg">
<path d="M317.44 12.5085L306.295 22.6555L304.769 40.588L288.679 40.2266L275.081 53.7937L276.951 68.0506L259.317 69.0726L258.636 85.9283L229.606 92.4508L230.104 110.288L215.185 125.027L200.666 115.325C198.011 113.551 194.383 115.249 194.136 118.377L191.032 138.879C178.301 131.889 163.618 127.896 147.973 127.885C99.469 127.856 59.84 166.491 59.8213 213.832C59.8063 261.325 99.2484 299.829 147.91 299.829C196.485 299.829 235.77 261.676 235.998 214.27C236.054 202.319 233.612 190.931 229.15 180.576H248.437C252.121 180.927 254.208 177.572 252.196 174.543L243.044 160.764L354.765 49.5414C355.483 48.826 355.891 47.8697 355.902 46.866C355.951 41.9786 356.082 26.9406 355.947 21.0787C355.913 19.6297 354.851 18.3996 353.393 18.1186L317.44 12.5085Z" fill="#00074A"/>
<path d="M152.424 223.946C159.174 223.946 164.646 218.605 164.646 212.018C164.646 205.43 159.174 200.089 152.424 200.089C145.674 200.089 140.201 205.43 140.201 212.018C140.201 218.605 145.674 223.946 152.424 223.946Z" fill="white"/>
<path d="M154.13 246.155C153.77 246.329 153.311 246.532 152.768 246.731C152.91 246.453 153.032 246.188 153.135 245.944C153.219 245.746 153.285 245.571 153.337 245.421C151.442 246.271 147.503 247.513 143.16 245.762C138.958 244.068 137.052 240.655 136.299 238.817C136.121 239.108 135.91 239.487 135.706 239.942C135.483 239.478 135.316 239.065 135.193 238.73C134.419 240.14 133.414 242.707 134.116 245.784C134.561 247.729 135.605 249.477 137.045 250.821C137.075 250.85 137.078 250.897 137.049 250.93C136.525 251.463 135.874 252.003 135.665 252.171C135.612 252.171 135.579 252.171 135.53 252.175C115.372 237.403 120.518 213.065 122.279 209.003L154.13 246.155ZM154.13 246.155C153.435 247.885 151.779 250.666 149.596 251.989M154.361 244.904C154.333 244.92 154.303 244.937 154.269 244.956C154.102 245.05 153.858 245.179 153.546 245.326C153.666 245.62 153.936 245.82 154.237 245.876C154.352 245.56 154.43 245.29 154.465 245.085C154.466 245.085 154.466 245.084 154.466 245.083C154.472 245.047 154.477 245.013 154.481 244.981C154.488 244.915 154.417 244.871 154.361 244.904ZM60.8256 213.785C59.3388 195.246 65.8318 174.677 79.415 161.381L143.414 256.814C144.592 257.336 145.8 257.807 147.057 258.205L146.754 259.158C146.755 259.158 146.755 259.158 146.755 259.158C149.051 259.886 157.822 262.527 168.79 260.034C171.727 259.369 178.619 257.726 185.039 252.405L185.039 252.404C187.869 250.057 190.462 247.113 192.32 244.753C193.251 243.57 194.005 242.523 194.521 241.756C194.777 241.375 194.982 241.052 195.12 240.811C195.187 240.695 195.252 240.574 195.3 240.465C195.32 240.42 195.354 240.339 195.379 240.241C196.537 238.106 197.908 235.112 198.866 231.377C198.174 246.412 191.818 256.289 191.084 257.392C191.033 257.456 190.995 257.52 190.966 257.58C180.058 277.567 155.138 286.621 134.716 285.763C96.4377 284.154 63.679 249.345 60.8256 213.785Z" fill="#18C64F" stroke="#00074A" stroke-width="2"/>
<path d="M152.424 171.477C162.846 171.477 171.296 163.231 171.296 153.059C171.296 142.887 162.846 134.641 152.424 134.641C142.001 134.641 133.552 142.887 133.552 153.059C133.552 163.231 142.001 171.477 152.424 171.477Z" fill="#00074A" stroke="#00074A" stroke-width="2" stroke-miterlimit="10"/>
<path d="M168.704 162.378C165.319 168.006 159.115 171.477 152.424 171.477C142.071 171.477 133.552 163.162 133.552 153.059C133.552 143.905 140.542 136.072 149.832 134.816C149.488 135.587 145.647 144.562 151.13 153.147C157.039 162.407 168.154 162.389 168.704 162.378Z" fill="white" stroke="#00074A" stroke-width="2" stroke-miterlimit="10"/>
<path d="M156.822 140.967C157.327 145.328 151.593 148.362 148.373 148.194C148.033 148.175 147.176 148.135 146.279 147.639C145.048 146.96 144.252 145.701 143.668 144.025C142.655 141.102 144.708 136.094 149.088 135.422C152.891 134.835 156.455 137.791 156.822 140.967Z" fill="white"/>
<path d="M129.858 170.469C132.132 169.293 132.386 165.414 130.425 161.805C128.464 158.197 125.032 156.226 122.758 157.403C120.484 158.579 120.23 162.458 122.191 166.067C124.151 169.675 127.584 171.646 129.858 170.469Z" fill="#C6191A" stroke="#00074A" stroke-miterlimit="10"/>
</svg>
