<svg xmlns="http://www.w3.org/2000/svg" xmlns:xlink="http://www.w3.org/1999/xlink" width="427" zoomAndPan="magnify" viewBox="0 0 320.25 109.499999" height="146" preserveAspectRatio="xMidYMid meet" version="1.0"><defs><g/><clipPath id="e4810ea3ed"><path d="M 81.449219 35.21875 L 118.410156 35.21875 L 118.410156 98.457031 L 81.449219 98.457031 Z M 81.449219 35.21875 " clip-rule="nonzero"/></clipPath><clipPath id="f5febcc496"><path d="M 99.929688 35.21875 C 104.832031 35.21875 109.53125 37.167969 113 40.632812 C 116.464844 44.097656 118.410156 48.800781 118.410156 53.699219 L 118.410156 79.863281 C 118.410156 84.761719 116.464844 89.464844 113 92.929688 C 109.53125 96.394531 104.832031 98.34375 99.929688 98.34375 C 95.03125 98.34375 90.328125 96.394531 86.863281 92.929688 C 83.398438 89.464844 81.449219 84.761719 81.449219 79.863281 L 81.449219 53.699219 C 81.449219 48.800781 83.398438 44.097656 86.863281 40.632812 C 90.328125 37.167969 95.03125 35.21875 99.929688 35.21875 Z M 99.929688 35.21875 " clip-rule="nonzero"/></clipPath><clipPath id="207273f92e"><path d="M 0.449219 0.21875 L 37.410156 0.21875 L 37.410156 63.429688 L 0.449219 63.429688 Z M 0.449219 0.21875 " clip-rule="nonzero"/></clipPath><clipPath id="f86c57fbd3"><path d="M 18.929688 0.21875 C 23.832031 0.21875 28.53125 2.167969 32 5.632812 C 35.464844 9.097656 37.410156 13.800781 37.410156 18.699219 L 37.410156 44.863281 C 37.410156 49.761719 35.464844 54.464844 32 57.929688 C 28.53125 61.394531 23.832031 63.34375 18.929688 63.34375 C 14.03125 63.34375 9.328125 61.394531 5.863281 57.929688 C 2.398438 54.464844 0.449219 49.761719 0.449219 44.863281 L 0.449219 18.699219 C 0.449219 13.800781 2.398438 9.097656 5.863281 5.632812 C 9.328125 2.167969 14.03125 0.21875 18.929688 0.21875 Z M 18.929688 0.21875 " clip-rule="nonzero"/></clipPath><clipPath id="c2f8ea5f73"><rect x="0" width="38" y="0" height="64"/></clipPath><clipPath id="baf516a4bf"><path d="M 104.449219 61.628906 L 140.402344 61.628906 L 140.402344 76.792969 L 104.449219 76.792969 Z M 104.449219 61.628906 " clip-rule="nonzero"/></clipPath><clipPath id="4d777fa9d9"><path d="M 0.449219 0.628906 L 36.402344 0.628906 L 36.402344 15.792969 L 0.449219 15.792969 Z M 0.449219 0.628906 " clip-rule="nonzero"/></clipPath><clipPath id="3fae24d3f6"><rect x="0" width="37" y="0" height="16"/></clipPath><clipPath id="a9270153e5"><path d="M 165.320312 77.363281 L 171.101562 77.363281 L 171.101562 89.191406 L 165.320312 89.191406 Z M 165.320312 77.363281 " clip-rule="nonzero"/></clipPath><clipPath id="18d359a3d9"><path d="M 0.320312 0.363281 L 6.101562 0.363281 L 6.101562 12.191406 L 0.320312 12.191406 Z M 0.320312 0.363281 " clip-rule="nonzero"/></clipPath><clipPath id="004bf5dc2c"><rect x="0" width="7" y="0" height="13"/></clipPath><clipPath id="e141fa6890"><path d="M 173.511719 77.363281 L 179.292969 77.363281 L 179.292969 89.191406 L 173.511719 89.191406 Z M 173.511719 77.363281 " clip-rule="nonzero"/></clipPath><clipPath id="14b9bab8f1"><path d="M 0.511719 0.363281 L 6.292969 0.363281 L 6.292969 12.191406 L 0.511719 12.191406 Z M 0.511719 0.363281 " clip-rule="nonzero"/></clipPath><clipPath id="355327fc2c"><rect x="0" width="7" y="0" height="13"/></clipPath><clipPath id="8375131200"><path d="M 90.640625 43.957031 L 110.125 43.957031 L 110.125 89.242188 L 90.640625 89.242188 Z M 90.640625 43.957031 " clip-rule="nonzero"/></clipPath><clipPath id="d0bde1514e"><path d="M 100.382812 43.957031 C 105.761719 43.957031 110.125 48.316406 110.125 53.699219 L 110.125 79.449219 C 110.125 84.828125 105.761719 89.191406 100.382812 89.191406 C 95.003906 89.191406 90.640625 84.828125 90.640625 79.449219 L 90.640625 53.699219 C 90.640625 48.316406 95.003906 43.957031 100.382812 43.957031 Z M 100.382812 43.957031 " clip-rule="nonzero"/></clipPath><clipPath id="57e7b3912f"><path d="M 0.640625 0.957031 L 20.125 0.957031 L 20.125 46.242188 L 0.640625 46.242188 Z M 0.640625 0.957031 " clip-rule="nonzero"/></clipPath><clipPath id="4e133f4155"><path d="M 10.382812 0.957031 C 15.761719 0.957031 20.125 5.316406 20.125 10.699219 L 20.125 36.449219 C 20.125 41.828125 15.761719 46.191406 10.382812 46.191406 C 5.003906 46.191406 0.640625 41.828125 0.640625 36.449219 L 0.640625 10.699219 C 0.640625 5.316406 5.003906 0.957031 10.382812 0.957031 Z M 10.382812 0.957031 " clip-rule="nonzero"/></clipPath><clipPath id="4dc04b74f5"><rect x="0" width="21" y="0" height="47"/></clipPath><clipPath id="a81fd05039"><path d="M 101.390625 73.609375 L 179.292969 73.609375 L 179.292969 81.261719 L 101.390625 81.261719 Z M 101.390625 73.609375 " clip-rule="nonzero"/></clipPath><clipPath id="da49c11b47"><path d="M 0.390625 0.609375 L 78.292969 0.609375 L 78.292969 8.261719 L 0.390625 8.261719 Z M 0.390625 0.609375 " clip-rule="nonzero"/></clipPath><clipPath id="8a5c2c751b"><rect x="0" width="79" y="0" height="9"/></clipPath><clipPath id="04a011a40e"><rect x="0" width="47" y="0" height="69"/></clipPath><clipPath id="46e4216b52"><rect x="0" width="65" y="0" height="69"/></clipPath><clipPath id="3c4d0ab1d0"><path d="M 67.878906 25.578125 L 76.339844 25.578125 L 76.339844 32.808594 L 67.878906 32.808594 Z M 67.878906 25.578125 " clip-rule="nonzero"/></clipPath><clipPath id="b119100820"><path d="M 0.878906 0.578125 L 9.339844 0.578125 L 9.339844 7.808594 L 0.878906 7.808594 Z M 0.878906 0.578125 " clip-rule="nonzero"/></clipPath><clipPath id="0fd292a0dc"><rect x="0" width="10" y="0" height="8"/></clipPath></defs><g clip-path="url(#e4810ea3ed)"><g clip-path="url(#f5febcc496)"><g transform="matrix(1, 0, 0, 1, 81, 35)"><g clip-path="url(#c2f8ea5f73)"><g clip-path="url(#207273f92e)"><g clip-path="url(#f86c57fbd3)"><path fill="#020a4c" d="M 0.449219 0.21875 L 37.410156 0.21875 L 37.410156 63.3125 L 0.449219 63.3125 Z M 0.449219 0.21875 " fill-opacity="1" fill-rule="nonzero"/></g></g></g></g></g></g><g clip-path="url(#baf516a4bf)"><g transform="matrix(1, 0, 0, 1, 104, 61)"><g clip-path="url(#3fae24d3f6)"><g clip-path="url(#4d777fa9d9)"><path fill="#ffffff" d="M 0.449219 0.628906 L 36.410156 0.628906 L 36.410156 15.792969 L 0.449219 15.792969 Z M 0.449219 0.628906 " fill-opacity="1" fill-rule="nonzero"/></g></g></g></g><g clip-path="url(#a9270153e5)"><g transform="matrix(1, 0, 0, 1, 165, 77)"><g clip-path="url(#004bf5dc2c)"><g clip-path="url(#18d359a3d9)"><path fill="#020a4c" d="M 0.320312 0.363281 L 6.101562 0.363281 L 6.101562 12.199219 L 0.320312 12.199219 Z M 0.320312 0.363281 " fill-opacity="1" fill-rule="nonzero"/></g></g></g></g><g clip-path="url(#e141fa6890)"><g transform="matrix(1, 0, 0, 1, 173, 77)"><g clip-path="url(#355327fc2c)"><g clip-path="url(#14b9bab8f1)"><path fill="#020a4c" d="M 0.511719 0.363281 L 6.292969 0.363281 L 6.292969 12.199219 L 0.511719 12.199219 Z M 0.511719 0.363281 " fill-opacity="1" fill-rule="nonzero"/></g></g></g></g><g clip-path="url(#8375131200)"><g clip-path="url(#d0bde1514e)"><g transform="matrix(1, 0, 0, 1, 90, 43)"><g clip-path="url(#4dc04b74f5)"><g clip-path="url(#57e7b3912f)"><g clip-path="url(#4e133f4155)"><path fill="#ffffff" d="M 0.640625 0.957031 L 20.125 0.957031 L 20.125 46.164062 L 0.640625 46.164062 Z M 0.640625 0.957031 " fill-opacity="1" fill-rule="nonzero"/></g></g></g></g></g></g><g clip-path="url(#a81fd05039)"><g transform="matrix(1, 0, 0, 1, 101, 73)"><g clip-path="url(#8a5c2c751b)"><g clip-path="url(#da49c11b47)"><path fill="#020a4c" d="M 0.390625 0.609375 L 78.285156 0.609375 L 78.285156 8.261719 L 0.390625 8.261719 Z M 0.390625 0.609375 " fill-opacity="1" fill-rule="nonzero"/></g></g></g></g><g transform="matrix(1, 0, 0, 1, 34, 20)"><g clip-path="url(#04a011a40e)"><g fill="#19c54f" fill-opacity="1"><g transform="translate(1.120416, 50.029652)"><g><path d="M 15.21875 0.34375 C 12.75 0.34375 10.535156 -0.0546875 8.578125 -0.859375 C 6.617188 -1.671875 5.050781 -2.863281 3.875 -4.4375 C 2.707031 -6.007812 2.085938 -7.898438 2.015625 -10.109375 L 10.796875 -10.109375 C 10.921875 -8.859375 11.351562 -7.90625 12.09375 -7.25 C 12.832031 -6.59375 13.796875 -6.265625 14.984375 -6.265625 C 16.203125 -6.265625 17.164062 -6.546875 17.875 -7.109375 C 18.582031 -7.671875 18.9375 -8.445312 18.9375 -9.4375 C 18.9375 -10.269531 18.65625 -10.957031 18.09375 -11.5 C 17.53125 -12.050781 16.835938 -12.503906 16.015625 -12.859375 C 15.191406 -13.210938 14.03125 -13.613281 12.53125 -14.0625 C 10.34375 -14.738281 8.554688 -15.410156 7.171875 -16.078125 C 5.796875 -16.753906 4.609375 -17.75 3.609375 -19.0625 C 2.617188 -20.382812 2.125 -22.109375 2.125 -24.234375 C 2.125 -27.378906 3.257812 -29.84375 5.53125 -31.625 C 7.8125 -33.40625 10.785156 -34.296875 14.453125 -34.296875 C 18.179688 -34.296875 21.179688 -33.40625 23.453125 -31.625 C 25.734375 -29.84375 26.957031 -27.363281 27.125 -24.1875 L 18.203125 -24.1875 C 18.140625 -25.269531 17.738281 -26.125 17 -26.75 C 16.257812 -27.382812 15.3125 -27.703125 14.15625 -27.703125 C 13.164062 -27.703125 12.363281 -27.4375 11.75 -26.90625 C 11.144531 -26.375 10.84375 -25.609375 10.84375 -24.609375 C 10.84375 -23.523438 11.351562 -22.675781 12.375 -22.0625 C 13.40625 -21.445312 15.015625 -20.789062 17.203125 -20.09375 C 19.378906 -19.351562 21.148438 -18.644531 22.515625 -17.96875 C 23.878906 -17.289062 25.054688 -16.3125 26.046875 -15.03125 C 27.046875 -13.75 27.546875 -12.09375 27.546875 -10.0625 C 27.546875 -8.132812 27.054688 -6.382812 26.078125 -4.8125 C 25.097656 -3.238281 23.675781 -1.984375 21.8125 -1.046875 C 19.957031 -0.117188 17.757812 0.34375 15.21875 0.34375 Z M 15.21875 0.34375 "/></g></g></g><g fill="#19c54f" fill-opacity="1"><g transform="translate(30.741228, 50.029652)"><g><path d="M 11.21875 -33.8125 L 11.21875 0 L 2.984375 0 L 2.984375 -33.8125 Z M 11.21875 -33.8125 "/></g></g></g></g></g><g transform="matrix(1, 0, 0, 1, 121, 20)"><g clip-path="url(#46e4216b52)"><g fill="#19c54f" fill-opacity="1"><g transform="translate(1.286384, 50.029652)"><g><path d="M 11.21875 -27.21875 L 11.21875 -20.375 L 22.25 -20.375 L 22.25 -14.015625 L 11.21875 -14.015625 L 11.21875 -6.59375 L 23.703125 -6.59375 L 23.703125 0 L 2.984375 0 L 2.984375 -33.8125 L 23.703125 -33.8125 L 23.703125 -27.21875 Z M 11.21875 -27.21875 "/></g></g></g><g fill="#19c54f" fill-opacity="1"><g transform="translate(27.343053, 50.029652)"><g><path d="M 1.59375 -16.953125 C 1.59375 -20.296875 2.3125 -23.273438 3.75 -25.890625 C 5.195312 -28.503906 7.210938 -30.539062 9.796875 -32 C 12.390625 -33.46875 15.320312 -34.203125 18.59375 -34.203125 C 22.601562 -34.203125 26.035156 -33.140625 28.890625 -31.015625 C 31.753906 -28.898438 33.671875 -26.015625 34.640625 -22.359375 L 25.578125 -22.359375 C 24.898438 -23.765625 23.941406 -24.835938 22.703125 -25.578125 C 21.472656 -26.316406 20.070312 -26.6875 18.5 -26.6875 C 15.957031 -26.6875 13.898438 -25.800781 12.328125 -24.03125 C 10.753906 -22.269531 9.96875 -19.910156 9.96875 -16.953125 C 9.96875 -14.003906 10.753906 -11.644531 12.328125 -9.875 C 13.898438 -8.101562 15.957031 -7.21875 18.5 -7.21875 C 20.070312 -7.21875 21.472656 -7.585938 22.703125 -8.328125 C 23.941406 -9.066406 24.898438 -10.144531 25.578125 -11.5625 L 34.640625 -11.5625 C 33.671875 -7.894531 31.753906 -5.007812 28.890625 -2.90625 C 26.035156 -0.8125 22.601562 0.234375 18.59375 0.234375 C 15.320312 0.234375 12.390625 -0.492188 9.796875 -1.953125 C 7.210938 -3.410156 5.195312 -5.441406 3.75 -8.046875 C 2.3125 -10.648438 1.59375 -13.617188 1.59375 -16.953125 Z M 1.59375 -16.953125 "/></g></g></g></g></g><g clip-path="url(#3c4d0ab1d0)"><g transform="matrix(1, 0, 0, 1, 67, 25)"><g clip-path="url(#0fd292a0dc)"><g clip-path="url(#b119100820)"><path fill="#cc0000" d="M 0.878906 0.578125 L 9.324219 0.578125 L 9.324219 7.808594 L 0.878906 7.808594 Z M 0.878906 0.578125 " fill-opacity="1" fill-rule="nonzero"/></g></g></g></g><g fill="#020a4c" fill-opacity="1"><g transform="translate(200.140427, 42.466285)"><g><path d="M 3.109375 0.125 C 2.566406 0.125 2.035156 0.0507812 1.515625 -0.09375 C 1.003906 -0.25 0.59375 -0.445312 0.28125 -0.6875 L 0.828125 -1.90625 C 1.128906 -1.6875 1.484375 -1.507812 1.890625 -1.375 C 2.304688 -1.238281 2.71875 -1.171875 3.125 -1.171875 C 3.582031 -1.171875 3.921875 -1.238281 4.140625 -1.375 C 4.359375 -1.507812 4.46875 -1.691406 4.46875 -1.921875 C 4.46875 -2.085938 4.398438 -2.222656 4.265625 -2.328125 C 4.140625 -2.441406 3.972656 -2.53125 3.765625 -2.59375 C 3.566406 -2.664062 3.296875 -2.738281 2.953125 -2.8125 C 2.421875 -2.9375 1.984375 -3.0625 1.640625 -3.1875 C 1.304688 -3.320312 1.019531 -3.523438 0.78125 -3.796875 C 0.539062 -4.078125 0.421875 -4.453125 0.421875 -4.921875 C 0.421875 -5.328125 0.53125 -5.691406 0.75 -6.015625 C 0.96875 -6.347656 1.296875 -6.609375 1.734375 -6.796875 C 2.179688 -6.992188 2.722656 -7.09375 3.359375 -7.09375 C 3.796875 -7.09375 4.226562 -7.035156 4.65625 -6.921875 C 5.082031 -6.816406 5.453125 -6.664062 5.765625 -6.46875 L 5.28125 -5.25 C 4.632812 -5.613281 3.988281 -5.796875 3.34375 -5.796875 C 2.894531 -5.796875 2.5625 -5.722656 2.34375 -5.578125 C 2.125 -5.429688 2.015625 -5.238281 2.015625 -5 C 2.015625 -4.757812 2.140625 -4.582031 2.390625 -4.46875 C 2.640625 -4.351562 3.019531 -4.238281 3.53125 -4.125 C 4.0625 -4 4.492188 -3.867188 4.828125 -3.734375 C 5.171875 -3.609375 5.460938 -3.410156 5.703125 -3.140625 C 5.953125 -2.867188 6.078125 -2.503906 6.078125 -2.046875 C 6.078125 -1.640625 5.960938 -1.269531 5.734375 -0.9375 C 5.515625 -0.613281 5.179688 -0.351562 4.734375 -0.15625 C 4.296875 0.03125 3.753906 0.125 3.109375 0.125 Z M 3.109375 0.125 "/></g></g></g><g fill="#020a4c" fill-opacity="1"><g transform="translate(207.285273, 42.466285)"><g><path d="M 0.828125 -6.96875 L 2.4375 -6.96875 L 2.4375 0 L 0.828125 0 Z M 0.828125 -6.96875 "/></g></g></g><g fill="#020a4c" fill-opacity="1"><g transform="translate(211.34543, 42.466285)"><g><path d="M 3.109375 0.125 C 2.566406 0.125 2.035156 0.0507812 1.515625 -0.09375 C 1.003906 -0.25 0.59375 -0.445312 0.28125 -0.6875 L 0.828125 -1.90625 C 1.128906 -1.6875 1.484375 -1.507812 1.890625 -1.375 C 2.304688 -1.238281 2.71875 -1.171875 3.125 -1.171875 C 3.582031 -1.171875 3.921875 -1.238281 4.140625 -1.375 C 4.359375 -1.507812 4.46875 -1.691406 4.46875 -1.921875 C 4.46875 -2.085938 4.398438 -2.222656 4.265625 -2.328125 C 4.140625 -2.441406 3.972656 -2.53125 3.765625 -2.59375 C 3.566406 -2.664062 3.296875 -2.738281 2.953125 -2.8125 C 2.421875 -2.9375 1.984375 -3.0625 1.640625 -3.1875 C 1.304688 -3.320312 1.019531 -3.523438 0.78125 -3.796875 C 0.539062 -4.078125 0.421875 -4.453125 0.421875 -4.921875 C 0.421875 -5.328125 0.53125 -5.691406 0.75 -6.015625 C 0.96875 -6.347656 1.296875 -6.609375 1.734375 -6.796875 C 2.179688 -6.992188 2.722656 -7.09375 3.359375 -7.09375 C 3.796875 -7.09375 4.226562 -7.035156 4.65625 -6.921875 C 5.082031 -6.816406 5.453125 -6.664062 5.765625 -6.46875 L 5.28125 -5.25 C 4.632812 -5.613281 3.988281 -5.796875 3.34375 -5.796875 C 2.894531 -5.796875 2.5625 -5.722656 2.34375 -5.578125 C 2.125 -5.429688 2.015625 -5.238281 2.015625 -5 C 2.015625 -4.757812 2.140625 -4.582031 2.390625 -4.46875 C 2.640625 -4.351562 3.019531 -4.238281 3.53125 -4.125 C 4.0625 -4 4.492188 -3.867188 4.828125 -3.734375 C 5.171875 -3.609375 5.460938 -3.410156 5.703125 -3.140625 C 5.953125 -2.867188 6.078125 -2.503906 6.078125 -2.046875 C 6.078125 -1.640625 5.960938 -1.269531 5.734375 -0.9375 C 5.515625 -0.613281 5.179688 -0.351562 4.734375 -0.15625 C 4.296875 0.03125 3.753906 0.125 3.109375 0.125 Z M 3.109375 0.125 "/></g></g></g><g fill="#020a4c" fill-opacity="1"><g transform="translate(218.490276, 42.466285)"><g><path d="M 2.265625 -5.65625 L 0.046875 -5.65625 L 0.046875 -6.96875 L 6.109375 -6.96875 L 6.109375 -5.65625 L 3.875 -5.65625 L 3.875 0 L 2.265625 0 Z M 2.265625 -5.65625 "/></g></g></g><g fill="#020a4c" fill-opacity="1"><g transform="translate(225.436114, 42.466285)"><g><path d="M 6.21875 -1.296875 L 6.21875 0 L 0.828125 0 L 0.828125 -6.96875 L 6.09375 -6.96875 L 6.09375 -5.671875 L 2.421875 -5.671875 L 2.421875 -4.15625 L 5.65625 -4.15625 L 5.65625 -2.90625 L 2.421875 -2.90625 L 2.421875 -1.296875 Z M 6.21875 -1.296875 "/></g></g></g><g fill="#020a4c" fill-opacity="1"><g transform="translate(232.909337, 42.466285)"><g><path d="M 7.171875 0 L 7.15625 -4.1875 L 5.109375 -0.734375 L 4.375 -0.734375 L 2.34375 -4.09375 L 2.34375 0 L 0.828125 0 L 0.828125 -6.96875 L 2.15625 -6.96875 L 4.765625 -2.640625 L 7.328125 -6.96875 L 8.65625 -6.96875 L 8.671875 0 Z M 7.171875 0 "/></g></g></g><g fill="#020a4c" fill-opacity="1"><g transform="translate(243.208534, 42.466285)"><g><path d="M 5.421875 -1.5 L 2.1875 -1.5 L 1.5625 0 L -0.09375 0 L 3.015625 -6.96875 L 4.609375 -6.96875 L 7.71875 0 L 6.03125 0 Z M 4.90625 -2.71875 L 3.796875 -5.390625 L 2.703125 -2.71875 Z M 4.90625 -2.71875 "/></g></g></g><g fill="#020a4c" fill-opacity="1"><g transform="translate(251.627059, 42.466285)"><g/></g></g><g fill="#020a4c" fill-opacity="1"><g transform="translate(255.239439, 42.466285)"><g><path d="M 0.828125 -6.96875 L 3.984375 -6.96875 C 4.742188 -6.96875 5.414062 -6.820312 6 -6.53125 C 6.582031 -6.238281 7.03125 -5.832031 7.34375 -5.3125 C 7.664062 -4.789062 7.828125 -4.179688 7.828125 -3.484375 C 7.828125 -2.785156 7.664062 -2.171875 7.34375 -1.640625 C 7.03125 -1.117188 6.582031 -0.710938 6 -0.421875 C 5.414062 -0.140625 4.742188 0 3.984375 0 L 0.828125 0 Z M 3.90625 -1.328125 C 4.601562 -1.328125 5.160156 -1.519531 5.578125 -1.90625 C 5.992188 -2.289062 6.203125 -2.816406 6.203125 -3.484375 C 6.203125 -4.148438 5.992188 -4.675781 5.578125 -5.0625 C 5.160156 -5.445312 4.601562 -5.640625 3.90625 -5.640625 L 2.4375 -5.640625 L 2.4375 -1.328125 Z M 3.90625 -1.328125 "/></g></g></g><g fill="#020a4c" fill-opacity="1"><g transform="translate(264.255, 42.466285)"><g><path d="M 6.21875 -1.296875 L 6.21875 0 L 0.828125 0 L 0.828125 -6.96875 L 6.09375 -6.96875 L 6.09375 -5.671875 L 2.421875 -5.671875 L 2.421875 -4.15625 L 5.65625 -4.15625 L 5.65625 -2.90625 L 2.421875 -2.90625 L 2.421875 -1.296875 Z M 6.21875 -1.296875 "/></g></g></g><g fill="#020a4c" fill-opacity="1"><g transform="translate(200.140427, 55.904921)"><g><path d="M 5.53125 -3.59375 L 7 -3.59375 L 7 -0.765625 C 6.625 -0.484375 6.1875 -0.265625 5.6875 -0.109375 C 5.195312 0.046875 4.695312 0.125 4.1875 0.125 C 3.46875 0.125 2.816406 -0.03125 2.234375 -0.34375 C 1.660156 -0.65625 1.207031 -1.082031 0.875 -1.625 C 0.550781 -2.175781 0.390625 -2.796875 0.390625 -3.484375 C 0.390625 -4.171875 0.550781 -4.785156 0.875 -5.328125 C 1.207031 -5.878906 1.664062 -6.3125 2.25 -6.625 C 2.832031 -6.9375 3.488281 -7.09375 4.21875 -7.09375 C 4.832031 -7.09375 5.382812 -6.988281 5.875 -6.78125 C 6.375 -6.570312 6.796875 -6.269531 7.140625 -5.875 L 6.09375 -4.921875 C 5.601562 -5.453125 5.003906 -5.71875 4.296875 -5.71875 C 3.859375 -5.71875 3.460938 -5.625 3.109375 -5.4375 C 2.765625 -5.25 2.492188 -4.984375 2.296875 -4.640625 C 2.109375 -4.304688 2.015625 -3.921875 2.015625 -3.484375 C 2.015625 -3.054688 2.109375 -2.671875 2.296875 -2.328125 C 2.492188 -1.992188 2.765625 -1.726562 3.109375 -1.53125 C 3.453125 -1.34375 3.84375 -1.25 4.28125 -1.25 C 4.738281 -1.25 5.15625 -1.347656 5.53125 -1.546875 Z M 5.53125 -3.59375 "/></g></g></g><g fill="#020a4c" fill-opacity="1"><g transform="translate(208.608701, 55.904921)"><g><path d="M 6.21875 -1.296875 L 6.21875 0 L 0.828125 0 L 0.828125 -6.96875 L 6.09375 -6.96875 L 6.09375 -5.671875 L 2.421875 -5.671875 L 2.421875 -4.15625 L 5.65625 -4.15625 L 5.65625 -2.90625 L 2.421875 -2.90625 L 2.421875 -1.296875 Z M 6.21875 -1.296875 "/></g></g></g><g fill="#020a4c" fill-opacity="1"><g transform="translate(216.081924, 55.904921)"><g><path d="M 5.265625 0 L 3.921875 -1.9375 L 2.4375 -1.9375 L 2.4375 0 L 0.828125 0 L 0.828125 -6.96875 L 3.84375 -6.96875 C 4.457031 -6.96875 4.988281 -6.863281 5.4375 -6.65625 C 5.894531 -6.445312 6.25 -6.15625 6.5 -5.78125 C 6.75 -5.40625 6.875 -4.957031 6.875 -4.4375 C 6.875 -3.914062 6.75 -3.46875 6.5 -3.09375 C 6.25 -2.71875 5.894531 -2.429688 5.4375 -2.234375 L 7 0 Z M 5.234375 -4.4375 C 5.234375 -4.832031 5.109375 -5.132812 4.859375 -5.34375 C 4.609375 -5.550781 4.238281 -5.65625 3.75 -5.65625 L 2.4375 -5.65625 L 2.4375 -3.21875 L 3.75 -3.21875 C 4.238281 -3.21875 4.609375 -3.320312 4.859375 -3.53125 C 5.109375 -3.75 5.234375 -4.050781 5.234375 -4.4375 Z M 5.234375 -4.4375 "/></g></g></g><g fill="#020a4c" fill-opacity="1"><g transform="translate(224.191986, 55.904921)"><g><path d="M 6.21875 -1.296875 L 6.21875 0 L 0.828125 0 L 0.828125 -6.96875 L 6.09375 -6.96875 L 6.09375 -5.671875 L 2.421875 -5.671875 L 2.421875 -4.15625 L 5.65625 -4.15625 L 5.65625 -2.90625 L 2.421875 -2.90625 L 2.421875 -1.296875 Z M 6.21875 -1.296875 "/></g></g></g><g fill="#020a4c" fill-opacity="1"><g transform="translate(231.665208, 55.904921)"><g><path d="M 7.21875 -6.96875 L 7.21875 0 L 5.890625 0 L 2.421875 -4.234375 L 2.421875 0 L 0.828125 0 L 0.828125 -6.96875 L 2.15625 -6.96875 L 5.625 -2.734375 L 5.625 -6.96875 Z M 7.21875 -6.96875 "/></g></g></g><g fill="#020a4c" fill-opacity="1"><g transform="translate(240.501663, 55.904921)"><g><path d="M 4.15625 0.125 C 3.445312 0.125 2.804688 -0.03125 2.234375 -0.34375 C 1.660156 -0.65625 1.207031 -1.082031 0.875 -1.625 C 0.550781 -2.175781 0.390625 -2.796875 0.390625 -3.484375 C 0.390625 -4.171875 0.550781 -4.785156 0.875 -5.328125 C 1.207031 -5.878906 1.660156 -6.3125 2.234375 -6.625 C 2.804688 -6.9375 3.453125 -7.09375 4.171875 -7.09375 C 4.773438 -7.09375 5.320312 -6.984375 5.8125 -6.765625 C 6.300781 -6.554688 6.707031 -6.253906 7.03125 -5.859375 L 6 -4.890625 C 5.53125 -5.441406 4.945312 -5.71875 4.25 -5.71875 C 3.820312 -5.71875 3.4375 -5.617188 3.09375 -5.421875 C 2.757812 -5.234375 2.492188 -4.96875 2.296875 -4.625 C 2.109375 -4.289062 2.015625 -3.910156 2.015625 -3.484375 C 2.015625 -3.054688 2.109375 -2.671875 2.296875 -2.328125 C 2.492188 -1.992188 2.757812 -1.726562 3.09375 -1.53125 C 3.4375 -1.34375 3.820312 -1.25 4.25 -1.25 C 4.945312 -1.25 5.53125 -1.523438 6 -2.078125 L 7.03125 -1.125 C 6.707031 -0.71875 6.296875 -0.40625 5.796875 -0.1875 C 5.304688 0.0195312 4.757812 0.125 4.15625 0.125 Z M 4.15625 0.125 "/></g></g></g><g fill="#020a4c" fill-opacity="1"><g transform="translate(248.591823, 55.904921)"><g><path d="M 0.828125 -6.96875 L 2.4375 -6.96875 L 2.4375 0 L 0.828125 0 Z M 0.828125 -6.96875 "/></g></g></g><g fill="#020a4c" fill-opacity="1"><g transform="translate(252.651981, 55.904921)"><g><path d="M 5.421875 -1.5 L 2.1875 -1.5 L 1.5625 0 L -0.09375 0 L 3.015625 -6.96875 L 4.609375 -6.96875 L 7.71875 0 L 6.03125 0 Z M 4.90625 -2.71875 L 3.796875 -5.390625 L 2.703125 -2.71875 Z M 4.90625 -2.71875 "/></g></g></g><g fill="#020a4c" fill-opacity="1"><g transform="translate(261.070506, 55.904921)"><g><path d="M 7.171875 0 L 7.15625 -4.1875 L 5.109375 -0.734375 L 4.375 -0.734375 L 2.34375 -4.09375 L 2.34375 0 L 0.828125 0 L 0.828125 -6.96875 L 2.15625 -6.96875 L 4.765625 -2.640625 L 7.328125 -6.96875 L 8.65625 -6.96875 L 8.671875 0 Z M 7.171875 0 "/></g></g></g><g fill="#020a4c" fill-opacity="1"><g transform="translate(271.369703, 55.904921)"><g><path d="M 6.21875 -1.296875 L 6.21875 0 L 0.828125 0 L 0.828125 -6.96875 L 6.09375 -6.96875 L 6.09375 -5.671875 L 2.421875 -5.671875 L 2.421875 -4.15625 L 5.65625 -4.15625 L 5.65625 -2.90625 L 2.421875 -2.90625 L 2.421875 -1.296875 Z M 6.21875 -1.296875 "/></g></g></g><g fill="#020a4c" fill-opacity="1"><g transform="translate(278.842925, 55.904921)"><g><path d="M 7.21875 -6.96875 L 7.21875 0 L 5.890625 0 L 2.421875 -4.234375 L 2.421875 0 L 0.828125 0 L 0.828125 -6.96875 L 2.15625 -6.96875 L 5.625 -2.734375 L 5.625 -6.96875 Z M 7.21875 -6.96875 "/></g></g></g><g fill="#020a4c" fill-opacity="1"><g transform="translate(287.67938, 55.904921)"><g><path d="M 2.265625 -5.65625 L 0.046875 -5.65625 L 0.046875 -6.96875 L 6.109375 -6.96875 L 6.109375 -5.65625 L 3.875 -5.65625 L 3.875 0 L 2.265625 0 Z M 2.265625 -5.65625 "/></g></g></g><g fill="#020a4c" fill-opacity="1"><g transform="translate(294.625218, 55.904921)"><g><path d="M 4.203125 0.125 C 3.472656 0.125 2.816406 -0.03125 2.234375 -0.34375 C 1.660156 -0.65625 1.207031 -1.082031 0.875 -1.625 C 0.550781 -2.175781 0.390625 -2.796875 0.390625 -3.484375 C 0.390625 -4.171875 0.550781 -4.785156 0.875 -5.328125 C 1.207031 -5.878906 1.660156 -6.3125 2.234375 -6.625 C 2.816406 -6.9375 3.472656 -7.09375 4.203125 -7.09375 C 4.921875 -7.09375 5.566406 -6.9375 6.140625 -6.625 C 6.722656 -6.3125 7.179688 -5.878906 7.515625 -5.328125 C 7.847656 -4.785156 8.015625 -4.171875 8.015625 -3.484375 C 8.015625 -2.796875 7.847656 -2.175781 7.515625 -1.625 C 7.179688 -1.082031 6.722656 -0.65625 6.140625 -0.34375 C 5.566406 -0.03125 4.921875 0.125 4.203125 0.125 Z M 4.203125 -1.25 C 4.609375 -1.25 4.976562 -1.34375 5.3125 -1.53125 C 5.644531 -1.726562 5.90625 -1.992188 6.09375 -2.328125 C 6.28125 -2.671875 6.375 -3.054688 6.375 -3.484375 C 6.375 -3.910156 6.28125 -4.289062 6.09375 -4.625 C 5.90625 -4.96875 5.644531 -5.234375 5.3125 -5.421875 C 4.976562 -5.617188 4.609375 -5.71875 4.203125 -5.71875 C 3.785156 -5.71875 3.410156 -5.617188 3.078125 -5.421875 C 2.753906 -5.234375 2.492188 -4.96875 2.296875 -4.625 C 2.109375 -4.289062 2.015625 -3.910156 2.015625 -3.484375 C 2.015625 -3.054688 2.109375 -2.671875 2.296875 -2.328125 C 2.492188 -1.992188 2.753906 -1.726562 3.078125 -1.53125 C 3.410156 -1.34375 3.785156 -1.25 4.203125 -1.25 Z M 4.203125 -1.25 "/></g></g></g><g fill="#020a4c" fill-opacity="1"><g transform="translate(200.140427, 69.343557)"><g><path d="M 0.828125 -6.96875 L 3.984375 -6.96875 C 4.742188 -6.96875 5.414062 -6.820312 6 -6.53125 C 6.582031 -6.238281 7.03125 -5.832031 7.34375 -5.3125 C 7.664062 -4.789062 7.828125 -4.179688 7.828125 -3.484375 C 7.828125 -2.785156 7.664062 -2.171875 7.34375 -1.640625 C 7.03125 -1.117188 6.582031 -0.710938 6 -0.421875 C 5.414062 -0.140625 4.742188 0 3.984375 0 L 0.828125 0 Z M 3.90625 -1.328125 C 4.601562 -1.328125 5.160156 -1.519531 5.578125 -1.90625 C 5.992188 -2.289062 6.203125 -2.816406 6.203125 -3.484375 C 6.203125 -4.148438 5.992188 -4.675781 5.578125 -5.0625 C 5.160156 -5.445312 4.601562 -5.640625 3.90625 -5.640625 L 2.4375 -5.640625 L 2.4375 -1.328125 Z M 3.90625 -1.328125 "/></g></g></g><g fill="#020a4c" fill-opacity="1"><g transform="translate(209.155988, 69.343557)"><g><path d="M 6.21875 -1.296875 L 6.21875 0 L 0.828125 0 L 0.828125 -6.96875 L 6.09375 -6.96875 L 6.09375 -5.671875 L 2.421875 -5.671875 L 2.421875 -4.15625 L 5.65625 -4.15625 L 5.65625 -2.90625 L 2.421875 -2.90625 L 2.421875 -1.296875 Z M 6.21875 -1.296875 "/></g></g></g><g fill="#020a4c" fill-opacity="1"><g transform="translate(216.62921, 69.343557)"><g/></g></g><g fill="#020a4c" fill-opacity="1"><g transform="translate(220.241591, 69.343557)"><g><path d="M 4.15625 0.125 C 3.445312 0.125 2.804688 -0.03125 2.234375 -0.34375 C 1.660156 -0.65625 1.207031 -1.082031 0.875 -1.625 C 0.550781 -2.175781 0.390625 -2.796875 0.390625 -3.484375 C 0.390625 -4.171875 0.550781 -4.785156 0.875 -5.328125 C 1.207031 -5.878906 1.660156 -6.3125 2.234375 -6.625 C 2.804688 -6.9375 3.453125 -7.09375 4.171875 -7.09375 C 4.773438 -7.09375 5.320312 -6.984375 5.8125 -6.765625 C 6.300781 -6.554688 6.707031 -6.253906 7.03125 -5.859375 L 6 -4.890625 C 5.53125 -5.441406 4.945312 -5.71875 4.25 -5.71875 C 3.820312 -5.71875 3.4375 -5.617188 3.09375 -5.421875 C 2.757812 -5.234375 2.492188 -4.96875 2.296875 -4.625 C 2.109375 -4.289062 2.015625 -3.910156 2.015625 -3.484375 C 2.015625 -3.054688 2.109375 -2.671875 2.296875 -2.328125 C 2.492188 -1.992188 2.757812 -1.726562 3.09375 -1.53125 C 3.4375 -1.34375 3.820312 -1.25 4.25 -1.25 C 4.945312 -1.25 5.53125 -1.523438 6 -2.078125 L 7.03125 -1.125 C 6.707031 -0.71875 6.296875 -0.40625 5.796875 -0.1875 C 5.304688 0.0195312 4.757812 0.125 4.15625 0.125 Z M 4.15625 0.125 "/></g></g></g><g fill="#020a4c" fill-opacity="1"><g transform="translate(228.331751, 69.343557)"><g><path d="M 7.21875 -6.96875 L 7.21875 0 L 5.609375 0 L 5.609375 -2.859375 L 2.4375 -2.859375 L 2.4375 0 L 0.828125 0 L 0.828125 -6.96875 L 2.4375 -6.96875 L 2.4375 -4.21875 L 5.609375 -4.21875 L 5.609375 -6.96875 Z M 7.21875 -6.96875 "/></g></g></g><g fill="#020a4c" fill-opacity="1"><g transform="translate(237.168206, 69.343557)"><g><path d="M 5.421875 -1.5 L 2.1875 -1.5 L 1.5625 0 L -0.09375 0 L 3.015625 -6.96875 L 4.609375 -6.96875 L 7.71875 0 L 6.03125 0 Z M 4.90625 -2.71875 L 3.796875 -5.390625 L 2.703125 -2.71875 Z M 4.90625 -2.71875 "/></g></g></g><g fill="#020a4c" fill-opacity="1"><g transform="translate(245.586731, 69.343557)"><g><path d="M 7.53125 -6.96875 L 4.515625 0 L 2.921875 0 L -0.09375 -6.96875 L 1.65625 -6.96875 L 3.765625 -1.984375 L 5.921875 -6.96875 Z M 7.53125 -6.96875 "/></g></g></g><g fill="#020a4c" fill-opacity="1"><g transform="translate(253.806248, 69.343557)"><g><path d="M 6.21875 -1.296875 L 6.21875 0 L 0.828125 0 L 0.828125 -6.96875 L 6.09375 -6.96875 L 6.09375 -5.671875 L 2.421875 -5.671875 L 2.421875 -4.15625 L 5.65625 -4.15625 L 5.65625 -2.90625 L 2.421875 -2.90625 L 2.421875 -1.296875 Z M 6.21875 -1.296875 "/></g></g></g><g fill="#020a4c" fill-opacity="1"><g transform="translate(261.279471, 69.343557)"><g><path d="M 3.109375 0.125 C 2.566406 0.125 2.035156 0.0507812 1.515625 -0.09375 C 1.003906 -0.25 0.59375 -0.445312 0.28125 -0.6875 L 0.828125 -1.90625 C 1.128906 -1.6875 1.484375 -1.507812 1.890625 -1.375 C 2.304688 -1.238281 2.71875 -1.171875 3.125 -1.171875 C 3.582031 -1.171875 3.921875 -1.238281 4.140625 -1.375 C 4.359375 -1.507812 4.46875 -1.691406 4.46875 -1.921875 C 4.46875 -2.085938 4.398438 -2.222656 4.265625 -2.328125 C 4.140625 -2.441406 3.972656 -2.53125 3.765625 -2.59375 C 3.566406 -2.664062 3.296875 -2.738281 2.953125 -2.8125 C 2.421875 -2.9375 1.984375 -3.0625 1.640625 -3.1875 C 1.304688 -3.320312 1.019531 -3.523438 0.78125 -3.796875 C 0.539062 -4.078125 0.421875 -4.453125 0.421875 -4.921875 C 0.421875 -5.328125 0.53125 -5.691406 0.75 -6.015625 C 0.96875 -6.347656 1.296875 -6.609375 1.734375 -6.796875 C 2.179688 -6.992188 2.722656 -7.09375 3.359375 -7.09375 C 3.796875 -7.09375 4.226562 -7.035156 4.65625 -6.921875 C 5.082031 -6.816406 5.453125 -6.664062 5.765625 -6.46875 L 5.28125 -5.25 C 4.632812 -5.613281 3.988281 -5.796875 3.34375 -5.796875 C 2.894531 -5.796875 2.5625 -5.722656 2.34375 -5.578125 C 2.125 -5.429688 2.015625 -5.238281 2.015625 -5 C 2.015625 -4.757812 2.140625 -4.582031 2.390625 -4.46875 C 2.640625 -4.351562 3.019531 -4.238281 3.53125 -4.125 C 4.0625 -4 4.492188 -3.867188 4.828125 -3.734375 C 5.171875 -3.609375 5.460938 -3.410156 5.703125 -3.140625 C 5.953125 -2.867188 6.078125 -2.503906 6.078125 -2.046875 C 6.078125 -1.640625 5.960938 -1.269531 5.734375 -0.9375 C 5.515625 -0.613281 5.179688 -0.351562 4.734375 -0.15625 C 4.296875 0.03125 3.753906 0.125 3.109375 0.125 Z M 3.109375 0.125 "/></g></g></g><path stroke-linecap="butt" transform="matrix(0, 0.746591, -0.746591, 0, 192.669269, 35.004806)" fill="none" stroke-linejoin="miter" d="M -0.00120457 1.001076 L 49.667272 1.001076 " stroke="#020a4c" stroke-width="2" stroke-opacity="1" stroke-miterlimit="4"/></svg>