<svg width="116" height="42" viewBox="0 0 116 42" fill="none" xmlns="http://www.w3.org/2000/svg">
<g clip-path="url(#clip0_2902_8423)">
<mask id="mask0_2902_8423" style="mask-type:luminance" maskUnits="userSpaceOnUse" x="15" y="11" width="13" height="11">
<path d="M15.1602 11.4609H27.4559V21.0633H15.1602V11.4609Z" fill="white"/>
</mask>
<g mask="url(#mask0_2902_8423)">
<path d="M27.1657 14.2343C27.1657 15.7648 25.9281 17.0061 24.3987 17.0061C22.3605 17.0061 20.7023 18.6688 20.7023 20.717C20.7023 19.185 19.4631 17.9436 17.9337 17.9436C16.4205 17.9436 15.2009 19.1425 15.1602 20.6386C15.2009 15.5998 19.2919 11.5018 24.3221 11.4609C24.3433 11.4609 24.371 11.4609 24.3905 11.4609C24.4117 11.4609 24.4395 11.4609 24.459 11.4609C25.9624 11.5018 27.1657 12.7284 27.1657 14.2343Z" fill="#D9D6FF"/>
</g>
<mask id="mask1_2902_8423" style="mask-type:luminance" maskUnits="userSpaceOnUse" x="15" y="17" width="10" height="13">
<path d="M15.1602 17.7183H24.534V29.9634H15.1602V17.7183Z" fill="white"/>
</mask>
<g mask="url(#mask1_2902_8423)">
<path d="M24.3221 29.9635C19.2919 29.9292 15.2009 25.8328 15.1602 20.7858C15.1602 20.7646 15.1602 20.7368 15.1602 20.7172C15.1602 20.696 15.1602 20.6682 15.1602 20.6486C15.2009 19.1443 16.4205 17.9438 17.9288 17.9438C19.4566 17.9438 20.6958 19.1852 20.6958 20.7172C20.6958 22.7573 22.3556 24.42 24.3922 24.42C22.8644 24.42 21.6252 25.6613 21.6252 27.1918C21.6317 28.701 22.8301 29.9292 24.3221 29.9635Z" fill="#A09AF0"/>
</g>
<mask id="mask2_2902_8423" style="mask-type:luminance" maskUnits="userSpaceOnUse" x="21" y="20" width="13" height="10">
<path d="M21.6123 20.6455H33.6309V29.9637H21.6123V20.6455Z" fill="white"/>
</mask>
<g mask="url(#mask2_2902_8423)">
<path d="M33.6308 20.7861C33.5901 25.8347 29.4991 29.9295 24.4689 29.9638C24.4477 29.9638 24.42 29.9638 24.4005 29.9638C24.3793 29.9638 24.3515 29.9638 24.332 29.9638C22.8303 29.9295 21.6318 28.7012 21.6318 27.1904C21.6318 25.6599 22.871 24.4186 24.4005 24.4186C26.437 24.4186 28.0969 22.7559 28.0969 20.7158C28.0969 22.2463 29.3361 23.4876 30.8639 23.4876C32.3705 23.4876 33.5966 22.2806 33.6308 20.7861Z" fill="#7E73FF"/>
</g>
<mask id="mask3_2902_8423" style="mask-type:luminance" maskUnits="userSpaceOnUse" x="24" y="11" width="10" height="13">
<path d="M24.1167 11.4609H33.6308V23.5721H24.1167V11.4609Z" fill="white"/>
</mask>
<g mask="url(#mask3_2902_8423)">
<path d="M33.6309 20.7154C33.6309 20.735 33.6309 20.7644 33.6309 20.784C33.5902 22.2801 32.3705 23.4872 30.8639 23.4872C29.3345 23.4872 28.0953 22.2458 28.0953 20.7154C28.0953 18.6737 26.4354 17.0045 24.3989 17.0045C25.9284 17.0045 27.1659 15.7631 27.1659 14.2327C27.1659 12.7235 25.9626 11.5018 24.469 11.4609C29.509 11.5018 33.5967 15.5998 33.6309 20.6386C33.6309 20.668 33.6309 20.6876 33.6309 20.7154Z" fill="#3F2EFF"/>
</g>
<mask id="mask4_2902_8423" style="mask-type:luminance" maskUnits="userSpaceOnUse" x="93" y="9" width="23" height="23">
<path d="M93.1938 9.19092H115.734V31.7701H93.1938V9.19092Z" fill="white"/>
</mask>
<g mask="url(#mask4_2902_8423)">
<path fill-rule="evenodd" clip-rule="evenodd" d="M87.3208 5.34296L89.0361 3.43359H119.92L121.635 5.34296V35.8977L119.92 37.8071H89.0361L87.3208 35.8977V5.34296ZM90.7531 7.25233V33.9884H118.205V7.25233H90.7531ZM100.337 20.6195L94.6875 14.3312L97.1137 11.6313L105.19 20.6195L97.1137 29.6094L94.6859 26.9079L100.337 20.6195ZM104.479 30.168H113.057V26.3493H104.479V30.168Z" fill="#7E73FF"/>
</g>
<path d="M38.2452 30.853C37.3794 30.853 36.6424 30.5427 36.0342 29.9253C35.4244 29.303 35.1211 28.5582 35.1211 27.6909C35.1211 26.8252 35.4244 26.0935 36.0342 25.4957C36.6424 24.8995 37.3794 24.6006 38.2452 24.6006C39.1061 24.6006 39.8398 24.8995 40.4496 25.4957C41.0578 26.0935 41.3627 26.8252 41.3627 27.6909C41.3627 28.5582 41.0578 29.303 40.4496 29.9253C39.8398 30.5427 39.1061 30.853 38.2452 30.853Z" fill="#00074A"/>
<path d="M49.95 0.361816V30.1473H45.0454V0.361816H49.95Z" fill="#00074A"/>
<path d="M64.8521 12.8993H69.6915V30.1473H64.8521V28.5662H64.7868C64.2683 29.2457 63.5835 29.7732 62.7324 30.1473C61.8796 30.5213 61.0106 30.7091 60.1236 30.7091C57.8539 30.7091 55.9641 29.8141 54.4559 28.0239C52.9509 26.2305 52.1992 24.0353 52.1992 21.4383C52.1992 19.823 52.5253 18.3252 53.1775 16.9434C53.833 15.5583 54.7624 14.446 55.9625 13.6049C57.1658 12.7604 58.5289 12.3374 60.0518 12.3374C60.9388 12.3374 61.8079 12.5252 62.6606 12.8993C63.5167 13.2749 64.2471 13.8139 64.8521 14.5195V12.8993ZM61.2062 16.6951C60.1105 16.6951 59.1648 17.1704 58.3691 18.1194C57.5734 19.0651 57.1756 20.1954 57.1756 21.5102C57.1756 22.8218 57.5734 23.9569 58.3691 24.9141C59.1648 25.8728 60.1236 26.3514 61.2454 26.3514C62.3884 26.3514 63.3585 25.8794 64.1542 24.9337C64.9499 23.9847 65.3477 22.843 65.3477 21.5102C65.3477 20.1741 64.9434 19.0373 64.1346 18.0998C63.3292 17.1639 62.3541 16.6951 61.2062 16.6951Z" fill="#00074A"/>
<path d="M78.1405 0.361816V14.4804C78.7486 13.8009 79.4726 13.275 80.3123 12.8993C81.1553 12.5253 82.0227 12.3374 82.9146 12.3374C84.3625 12.3374 85.693 12.749 86.9061 13.5722C88.1225 14.3921 89.0715 15.5094 89.7498 16.9238C90.4281 18.3399 90.7672 19.8442 90.7672 21.4384C90.7672 23.1468 90.4281 24.7214 89.7498 26.162C89.0715 27.5993 88.1192 28.7165 86.8931 29.5136C85.6669 30.3106 84.3038 30.7092 82.8037 30.7092C81.9167 30.7092 81.0509 30.5213 80.208 30.1473C79.3682 29.7733 78.703 29.2359 78.2122 28.5336H78.1405V30.1473H73.2358V0.361816H78.1405ZM81.6819 16.6952C80.5862 16.6952 79.6405 17.1705 78.8448 18.1194C78.0491 19.0651 77.6513 20.1954 77.6513 21.5102C77.6513 22.843 78.0491 23.9847 78.8448 24.9337C79.6405 25.8794 80.5993 26.3514 81.7211 26.3514C82.9114 26.3514 83.8864 25.8614 84.643 24.8814C85.4028 23.8982 85.7843 22.7744 85.7843 21.5102C85.7843 20.2428 85.3995 19.1239 84.6299 18.1521C83.8603 17.1819 82.8771 16.6952 81.6819 16.6952Z" fill="#00074A"/>
<path d="M13.3503 17.4192C12.8367 16.8802 12.2937 16.4637 11.7198 16.1714C11.1491 15.8806 10.4904 15.7336 9.74358 15.7336C8.50438 15.7336 7.469 16.2334 6.63906 17.2298C5.8075 18.2228 5.39335 19.4348 5.39335 20.8623C5.39335 22.3127 5.81891 23.5018 6.67167 24.4295C7.52281 25.354 8.60547 25.8146 9.91967 25.8146C10.5931 25.8146 11.2208 25.6627 11.8046 25.3572C12.3915 25.0534 12.9068 24.6549 13.3503 24.1616V28.9048C12.6492 29.3017 11.9546 29.5745 11.2632 29.728C10.5751 29.8799 9.85771 29.9567 9.11094 29.9567C6.65374 29.9567 4.59113 29.0731 2.92147 27.3042C1.25182 25.5369 0.416992 23.376 0.416992 20.8231C0.416992 19.1636 0.801795 17.6201 1.5714 16.191C2.34101 14.7634 3.41389 13.6397 4.79331 12.8198C6.176 11.9966 7.69727 11.585 9.35878 11.585C10.011 11.585 10.6795 11.6748 11.3676 11.8528C12.0589 12.0276 12.7193 12.302 13.3503 12.676V17.4192Z" fill="#00074A"/>
<path d="M4.59246 36.8804V40.0229H5.636V40.6632H3.85547V36.8804H4.59246Z" fill="#00074A"/>
<path d="M7.79776 36.7827L9.23262 40.6635H8.44997L8.15648 39.8664H6.84554L6.53248 40.6635H5.75635L7.23034 36.7827H7.79776ZM7.05424 39.2654H7.94777L7.47818 37.8868H7.47166L7.05424 39.2654Z" fill="#00074A"/>
<path d="M10.6015 36.8804C10.9667 36.8804 11.2423 36.9653 11.4298 37.1352C11.6156 37.305 11.7102 37.5631 11.7102 37.9061C11.7102 38.0466 11.6841 38.1854 11.632 38.3242C11.5798 38.4598 11.495 38.5643 11.3776 38.6378C11.5814 38.6819 11.7396 38.793 11.8537 38.971C11.9662 39.1458 12.0233 39.3532 12.0233 39.5917C12.0233 39.9282 11.9157 40.1911 11.7037 40.3822C11.4901 40.5701 11.1982 40.6632 10.8297 40.6632H9.65576V36.8804H10.6015ZM10.3928 38.4549H10.4841C10.683 38.4549 10.8232 38.419 10.9015 38.3438C10.9797 38.2703 11.0189 38.1413 11.0189 37.9584C11.0189 37.7983 10.9797 37.6774 10.9015 37.599C10.8232 37.5174 10.6814 37.4749 10.4775 37.4749H10.3928V38.4549ZM10.3928 40.0686H10.6015C10.8444 40.0686 11.0189 40.0294 11.1232 39.951C11.2308 39.8694 11.2863 39.7273 11.2863 39.5264C11.2863 39.3745 11.2504 39.2634 11.1819 39.1932C11.1118 39.1246 11.0352 39.0788 10.9537 39.056C10.8526 39.0298 10.7189 39.0168 10.5493 39.0168H10.3928V40.0686Z" fill="#00074A"/>
<path d="M12.4497 38.7688C12.4497 38.3866 12.528 38.0436 12.6845 37.7431C12.8443 37.4426 13.066 37.2074 13.3498 37.0375C13.6367 36.8676 13.9579 36.7827 14.315 36.7827C14.6803 36.7827 15.0064 36.8709 15.2933 37.044C15.5803 37.2188 15.7988 37.4589 15.9521 37.7627C16.1086 38.0632 16.1869 38.3997 16.1869 38.7688C16.1869 39.1527 16.1053 39.4973 15.9455 39.8011C15.789 40.1065 15.5689 40.3434 15.2868 40.5132C15.0031 40.6782 14.6803 40.7615 14.315 40.7615C13.9579 40.7615 13.6384 40.6782 13.3563 40.5132C13.0726 40.3483 12.8508 40.1131 12.691 39.8076C12.5296 39.4989 12.4497 39.1527 12.4497 38.7688ZM14.315 37.5079C13.9971 37.5079 13.7346 37.6304 13.5259 37.8738C13.3171 38.1139 13.2128 38.4013 13.2128 38.7362C13.2128 39.1151 13.3106 39.4271 13.5063 39.6704C13.7052 39.9154 13.9759 40.0363 14.315 40.0363C14.6574 40.0363 14.9281 39.9154 15.1238 39.6704C15.3227 39.4271 15.4238 39.1151 15.4238 38.7362C15.4238 38.3964 15.3162 38.1073 15.1042 37.8672C14.8955 37.6288 14.6313 37.5079 14.315 37.5079Z" fill="#00074A"/>
<path d="M17.7606 36.8804C18.1601 36.8804 18.4666 36.9784 18.6802 37.1744C18.8971 37.3704 19.0063 37.6513 19.0063 38.0172C19.0063 38.2883 18.9313 38.5235 18.7846 38.7228C18.6411 38.9188 18.4585 39.0347 18.2367 39.069L19.2998 40.6632H18.4063L17.4932 39.1409H17.4802V40.6632H16.7432V36.8804H17.7606ZM17.4802 38.6182H17.5649C17.816 38.6182 17.997 38.5725 18.1063 38.481C18.2139 38.3863 18.2693 38.2377 18.2693 38.0368C18.2693 37.8408 18.2139 37.7003 18.1063 37.6121C18.0019 37.5255 17.8226 37.4814 17.5715 37.4814H17.4802V38.6182Z" fill="#00074A"/>
<path d="M21.4672 36.7827L22.9021 40.6635H22.1194L21.8259 39.8664H20.515L20.2019 40.6635H19.4258L20.8998 36.7827H21.4672ZM20.7237 39.2654H21.6172L21.1476 37.8868H21.1411L20.7237 39.2654Z" fill="#00074A"/>
<path d="M25.014 36.8804V37.5206H24.2574V40.6632H23.5204V37.5206H22.7573V36.8804H25.014Z" fill="#00074A"/>
<path d="M25.1577 38.7688C25.1577 38.3866 25.236 38.0436 25.3925 37.7431C25.5523 37.4425 25.7741 37.2073 26.0578 37.0375C26.3447 36.8676 26.6659 36.7827 27.023 36.7827C27.3883 36.7827 27.7144 36.8709 28.0013 37.044C28.2883 37.2188 28.5068 37.4589 28.6601 37.7627C28.8166 38.0632 28.8949 38.3997 28.8949 38.7688C28.8949 39.1526 28.8133 39.4973 28.6536 39.8011C28.497 40.1065 28.2769 40.3433 27.9948 40.5132C27.7111 40.6782 27.3883 40.7615 27.023 40.7615C26.6659 40.7615 26.3464 40.6782 26.0643 40.5132C25.7806 40.3482 25.5588 40.113 25.399 39.8076C25.2376 39.4989 25.1577 39.1526 25.1577 38.7688ZM27.023 37.5079C26.7051 37.5079 26.4426 37.6304 26.2339 37.8737C26.0252 38.1138 25.9208 38.4013 25.9208 38.7361C25.9208 39.1151 26.0186 39.427 26.2143 39.6704C26.4132 39.9154 26.6839 40.0363 27.023 40.0363C27.3654 40.0363 27.6361 39.9154 27.8318 39.6704C28.0307 39.427 28.1318 39.1151 28.1318 38.7361C28.1318 38.3964 28.0242 38.1073 27.8122 37.8672C27.6035 37.6287 27.3394 37.5079 27.023 37.5079ZM27.7274 35.9464L26.9709 36.6977L26.6187 36.4756L27.2187 35.6328L27.7274 35.9464Z" fill="#00074A"/>
<path d="M30.4686 36.8804C30.8681 36.8804 31.1746 36.9784 31.3882 37.1744C31.6051 37.3704 31.7143 37.6513 31.7143 38.0172C31.7143 38.2883 31.6393 38.5235 31.4926 38.7228C31.3491 38.9188 31.1665 39.0347 30.9447 39.069L32.0078 40.6632H31.1143L30.2012 39.1409H30.1882V40.6632H29.4512V36.8804H30.4686ZM30.1882 38.6182H30.273C30.5241 38.6182 30.705 38.5725 30.8143 38.481C30.9219 38.3863 30.9773 38.2377 30.9773 38.0368C30.9773 37.8408 30.9219 37.7003 30.8143 37.6121C30.7099 37.5255 30.5306 37.4814 30.2795 37.4814H30.1882V38.6182Z" fill="#00074A"/>
<path d="M33.1833 36.8804V40.6632H32.4463V36.8804H33.1833Z" fill="#00074A"/>
<path d="M33.7432 38.7688C33.7432 38.3866 33.8214 38.0436 33.978 37.7431C34.1378 37.4426 34.3595 37.2074 34.6432 37.0375C34.9302 36.8676 35.2514 36.7827 35.6085 36.7827C35.9737 36.7827 36.2998 36.8709 36.5868 37.044C36.8738 37.2188 37.0923 37.4589 37.2455 37.7627C37.4021 38.0632 37.4803 38.3997 37.4803 38.7688C37.4803 39.1527 37.3988 39.4973 37.239 39.8011C37.0825 40.1065 36.8624 40.3434 36.5803 40.5132C36.2966 40.6782 35.9737 40.7615 35.6085 40.7615C35.2514 40.7615 34.9318 40.6782 34.6497 40.5132C34.366 40.3483 34.1443 40.1131 33.9845 39.8076C33.8231 39.4989 33.7432 39.1527 33.7432 38.7688ZM35.6085 37.5079C35.2905 37.5079 35.028 37.6304 34.8193 37.8738C34.6106 38.1139 34.5062 38.4013 34.5062 38.7362C34.5062 39.1151 34.6041 39.4271 34.7997 39.6704C34.9987 39.9154 35.2693 40.0363 35.6085 40.0363C35.9509 40.0363 36.2216 39.9154 36.4172 39.6704C36.6161 39.4271 36.7172 39.1151 36.7172 38.7362C36.7172 38.3964 36.6096 38.1073 36.3977 37.8672C36.1889 37.6288 35.9248 37.5079 35.6085 37.5079Z" fill="#00074A"/>
<path d="M40.7672 36.8804C40.9841 36.8804 41.2042 36.9228 41.426 37.0045C41.651 37.0878 41.8515 37.2168 42.026 37.39C42.2037 37.5647 42.3358 37.7722 42.4238 38.0106C42.5152 38.2507 42.5608 38.5055 42.5608 38.775C42.5608 39.1409 42.4793 39.4708 42.3195 39.7616C42.1581 40.049 41.938 40.2712 41.6608 40.428C41.3819 40.5848 41.0819 40.6632 40.7607 40.6632H39.6846V36.8804H40.7672ZM40.4216 40.0229H40.5259C40.9564 40.0229 41.276 39.9184 41.4847 39.7093C41.6966 39.5002 41.8042 39.1866 41.8042 38.7685C41.8042 38.3634 41.6999 38.0547 41.4912 37.8408C41.2825 37.6284 40.9596 37.5206 40.5259 37.5206H40.4216V40.0229Z" fill="#00074A"/>
<path d="M45.0772 36.8804V37.5206H43.8576V38.3569H45.0316V38.9972H43.8576V40.0229H45.0772V40.6632H43.1206V36.8804H45.0772Z" fill="#00074A"/>
<path d="M49.8239 37.8868C49.7195 37.7562 49.5907 37.6565 49.4391 37.5863C49.2907 37.5177 49.1407 37.4818 48.989 37.4818C48.6662 37.4818 48.402 37.6108 48.1933 37.8672C47.9846 38.1204 47.8803 38.4275 47.8803 38.7884C47.8803 39.1412 47.9863 39.4418 48.1999 39.69C48.4118 39.9383 48.6727 40.0624 48.9825 40.0624C49.1423 40.0624 49.2972 40.0265 49.4456 39.9514C49.5923 39.873 49.7195 39.775 49.8239 39.6574V40.5394C49.6804 40.6047 49.5385 40.657 49.3999 40.6962C49.2646 40.7386 49.1195 40.7615 48.9629 40.7615C48.6271 40.7615 48.3205 40.6766 48.0433 40.5067C47.7645 40.3368 47.5411 40.1 47.3715 39.7946C47.202 39.4859 47.1172 39.1543 47.1172 38.8015C47.1172 38.4356 47.1971 38.0959 47.3585 37.7823C47.5232 37.4687 47.7466 37.2253 48.0303 37.0506C48.3173 36.8725 48.6336 36.7827 48.9825 36.7827C49.1293 36.7827 49.2727 36.8023 49.413 36.8415C49.5564 36.8774 49.6934 36.9297 49.8239 36.9983V37.8868Z" fill="#00074A"/>
<path d="M50.2979 38.7688C50.2979 38.3866 50.3761 38.0436 50.5326 37.7431C50.6924 37.4426 50.9142 37.2074 51.1979 37.0375C51.4849 36.8676 51.8061 36.7827 52.1632 36.7827C52.5284 36.7827 52.8545 36.8709 53.1415 37.044C53.4285 37.2188 53.6469 37.4589 53.8002 37.7627C53.9567 38.0632 54.035 38.3997 54.035 38.7688C54.035 39.1527 53.9535 39.4973 53.7937 39.8011C53.6372 40.1065 53.417 40.3434 53.135 40.5132C52.8512 40.6782 52.5284 40.7615 52.1632 40.7615C51.8061 40.7615 51.4865 40.6782 51.2044 40.5132C50.9207 40.3483 50.699 40.1131 50.5392 39.8076C50.3777 39.4989 50.2979 39.1527 50.2979 38.7688ZM52.1632 37.5079C51.8452 37.5079 51.5827 37.6304 51.374 37.8738C51.1653 38.1139 51.0609 38.4013 51.0609 38.7362C51.0609 39.1151 51.1588 39.4271 51.3544 39.6704C51.5534 39.9154 51.824 40.0363 52.1632 40.0363C52.5056 40.0363 52.7762 39.9154 52.9719 39.6704C53.1708 39.4271 53.2719 39.1151 53.2719 38.7362C53.2719 38.3964 53.1643 38.1073 52.9523 37.8672C52.7436 37.6288 52.4795 37.5079 52.1632 37.5079Z" fill="#00074A"/>
<path d="M57.1217 37.8868C57.0174 37.7562 56.8885 37.6565 56.7369 37.5863C56.5885 37.5177 56.4385 37.4818 56.2869 37.4818C55.964 37.4818 55.6999 37.6108 55.4912 37.8672C55.2825 38.1204 55.1781 38.4275 55.1781 38.7884C55.1781 39.1412 55.2841 39.4418 55.4977 39.69C55.7097 39.9383 55.9706 40.0624 56.2804 40.0624C56.4401 40.0624 56.595 40.0265 56.7434 39.9514C56.8902 39.873 57.0174 39.775 57.1217 39.6574V40.5394C56.9782 40.6047 56.8364 40.657 56.6978 40.6962C56.5624 40.7386 56.4173 40.7615 56.2608 40.7615C55.9249 40.7615 55.6184 40.6766 55.3412 40.5067C55.0624 40.3368 54.839 40.1 54.6694 39.7946C54.4998 39.4859 54.415 39.1543 54.415 38.8015C54.415 38.4356 54.4949 38.0959 54.6564 37.7823C54.821 37.4687 55.0444 37.2253 55.3281 37.0506C55.6151 36.8725 55.9314 36.7827 56.2804 36.7827C56.4271 36.7827 56.5706 36.8023 56.7108 36.8415C56.8543 36.8774 56.9913 36.9297 57.1217 36.9983V37.8868Z" fill="#00074A"/>
<path d="M58.8192 36.8804C59.2187 36.8804 59.5252 36.9784 59.7388 37.1744C59.9557 37.3704 60.0649 37.6513 60.0649 38.0172C60.0649 38.2883 59.9899 38.5235 59.8432 38.7228C59.6997 38.9188 59.5171 39.0347 59.2953 39.069L60.3584 40.6632H59.4649L58.5518 39.1409H58.5388V40.6632H57.8018V36.8804H58.8192ZM58.5388 38.6182H58.6235C58.8746 38.6182 59.0556 38.5725 59.1649 38.481C59.2725 38.3863 59.3279 38.2377 59.3279 38.0368C59.3279 37.8408 59.2725 37.7003 59.1649 37.6121C59.0605 37.5255 58.8812 37.4814 58.6301 37.4814H58.5388V38.6182Z" fill="#00074A"/>
<path d="M61.5344 36.8804V40.6632H60.7974V36.8804H61.5344Z" fill="#00074A"/>
<path d="M63.9984 36.7827L65.4333 40.6635H64.6507L64.3572 39.8664H63.0462L62.7332 40.6635H61.957L63.431 36.7827H63.9984ZM63.2549 39.2654H64.1485L63.6789 37.8868H63.6723L63.2549 39.2654Z" fill="#00074A"/>
<path d="M68.3268 37.8868C68.2224 37.7562 68.0936 37.6565 67.942 37.5863C67.7936 37.5177 67.6436 37.4818 67.492 37.4818C67.1691 37.4818 66.905 37.6108 66.6963 37.8672C66.4876 38.1204 66.3832 38.4275 66.3832 38.7884C66.3832 39.1412 66.4892 39.4418 66.7028 39.69C66.9148 39.9383 67.1756 40.0624 67.4854 40.0624C67.6452 40.0624 67.8001 40.0265 67.9485 39.9514C68.0953 39.873 68.2224 39.775 68.3268 39.6574V40.5394C68.1833 40.6047 68.0414 40.657 67.9028 40.6962C67.7675 40.7386 67.6224 40.7615 67.4659 40.7615C67.13 40.7615 66.8234 40.6766 66.5463 40.5067C66.2674 40.3368 66.0441 40.1 65.8745 39.7946C65.7049 39.4859 65.6201 39.1543 65.6201 38.8015C65.6201 38.4356 65.7 38.0959 65.8614 37.7823C66.0261 37.4687 66.2495 37.2253 66.5332 37.0506C66.8202 36.8725 67.1365 36.7827 67.4854 36.7827C67.6322 36.7827 67.7757 36.8023 67.9159 36.8415C68.0594 36.8774 68.1963 36.9297 68.3268 36.9983V37.8868ZM67.5115 40.9967L66.9311 41.6958L66.5593 41.5063L67.0485 40.7615L67.5115 40.9967Z" fill="#00074A"/>
<path d="M70.6752 36.7826L72.1101 40.6634H71.3274L71.0339 39.8664H69.723L69.4099 40.6634H68.6338L70.1078 36.7826H70.6752ZM69.9317 39.2653H70.8252L70.3556 37.8868H70.3491L69.9317 39.2653ZM70.9165 35.7961H71.3274C71.2883 36.0182 71.2165 36.193 71.1122 36.3188C71.0078 36.4413 70.8774 36.5017 70.7209 36.5017C70.6426 36.5017 70.5268 36.4674 70.3752 36.3972C70.2219 36.3237 70.1143 36.2861 70.0491 36.2861C69.992 36.2861 69.9447 36.3057 69.9056 36.3449C69.8697 36.3841 69.8469 36.4331 69.8339 36.4886H69.423C69.4442 36.2845 69.5045 36.1162 69.6056 35.9856C69.705 35.8549 69.8241 35.7896 69.9643 35.7896C70.0686 35.7896 70.1958 35.8271 70.3491 35.9006C70.5056 35.9709 70.6132 36.0052 70.6752 36.0052C70.7486 36.0052 70.7991 35.9856 70.8252 35.9464C70.8546 35.9072 70.8855 35.8582 70.9165 35.7961Z" fill="#00074A"/>
<path d="M72.2969 38.7688C72.2969 38.3866 72.3751 38.0436 72.5317 37.7431C72.6915 37.4426 72.9132 37.2074 73.1969 37.0375C73.4839 36.8676 73.8051 36.7827 74.1622 36.7827C74.5274 36.7827 74.8535 36.8709 75.1405 37.044C75.4275 37.2188 75.646 37.4589 75.7992 37.7627C75.9558 38.0632 76.034 38.3997 76.034 38.7688C76.034 39.1527 75.9525 39.4973 75.7927 39.8011C75.6362 40.1065 75.4161 40.3434 75.134 40.5132C74.8503 40.6782 74.5274 40.7615 74.1622 40.7615C73.8051 40.7615 73.4855 40.6782 73.2034 40.5132C72.9197 40.3483 72.698 40.1131 72.5382 39.8076C72.3768 39.4989 72.2969 39.1527 72.2969 38.7688ZM74.1622 37.5079C73.8442 37.5079 73.5817 37.6304 73.373 37.8738C73.1643 38.1139 73.06 38.4013 73.06 38.7362C73.06 39.1151 73.1578 39.4271 73.3535 39.6704C73.5524 39.9154 73.823 40.0363 74.1622 40.0363C74.5046 40.0363 74.7753 39.9154 74.9709 39.6704C75.1699 39.4271 75.2709 39.1151 75.2709 38.7362C75.2709 38.3964 75.1633 38.1073 74.9514 37.8672C74.7427 37.6288 74.4785 37.5079 74.1622 37.5079Z" fill="#00074A"/>
<path d="M79.3209 36.8804C79.5378 36.8804 79.7579 36.9228 79.9797 37.0045C80.2047 37.0878 80.4052 37.2168 80.5797 37.39C80.7574 37.5647 80.8895 37.7722 80.9776 38.0106C81.0689 38.2507 81.1145 38.5055 81.1145 38.775C81.1145 39.1409 81.033 39.4708 80.8732 39.7616C80.7118 40.049 80.4917 40.2712 80.2145 40.428C79.9357 40.5848 79.6356 40.6632 79.3144 40.6632H78.2383V36.8804H79.3209ZM78.9753 40.0229H79.0796C79.5101 40.0229 79.8297 39.9184 80.0384 39.7093C80.2503 39.5002 80.358 39.1866 80.358 38.7685C80.358 38.3634 80.2536 38.0547 80.0449 37.8408C79.8362 37.6284 79.5133 37.5206 79.0796 37.5206H78.9753V40.0229Z" fill="#00074A"/>
<path d="M83.6314 36.8804V37.5206H82.4118V38.3569H83.5858V38.9972H82.4118V40.0229H83.6314V40.6632H81.6748V36.8804H83.6314Z" fill="#00074A"/>
<path d="M87.7479 37.7104C87.6778 37.6157 87.5979 37.5406 87.5066 37.4883C87.4153 37.4328 87.306 37.4034 87.1805 37.4034C87.0533 37.4034 86.9457 37.4458 86.8544 37.5275C86.7663 37.6108 86.724 37.7104 86.724 37.828C86.724 37.9375 86.7663 38.0289 86.8544 38.1024C86.9408 38.1776 87.0713 38.2494 87.2457 38.318C87.5457 38.4405 87.7577 38.5581 87.8849 38.6708C88.0104 38.7852 88.0969 38.906 88.1458 39.0367C88.1931 39.1674 88.2175 39.3111 88.2175 39.4679C88.2175 39.8566 88.1034 40.1702 87.8784 40.4087C87.6517 40.6439 87.3517 40.7615 86.9783 40.7615C86.7174 40.7615 86.4908 40.6929 86.3 40.559C86.1076 40.425 85.9478 40.2454 85.8174 40.0232L86.2935 39.5594C86.3489 39.7211 86.4402 39.8534 86.5674 39.9579C86.693 40.0624 86.8283 40.1147 86.9718 40.1147C87.1104 40.1147 87.2262 40.0657 87.3175 39.9644C87.412 39.8599 87.4609 39.7276 87.4609 39.5659C87.4609 39.4271 87.4169 39.316 87.3305 39.2327C87.2425 39.1461 87.112 39.0694 86.9392 39.004C86.5642 38.8603 86.3082 38.7084 86.1696 38.5467C86.0294 38.3866 85.9609 38.1743 85.9609 37.913C85.9609 37.7137 86.0065 37.5259 86.0978 37.3511C86.1924 37.178 86.3261 37.0408 86.4957 36.9395C86.6653 36.835 86.8544 36.7827 87.0631 36.7827C87.2457 36.7827 87.4365 36.8252 87.637 36.9068C87.8409 36.9901 87.9925 37.0881 88.0936 37.2008L87.7479 37.7104Z" fill="#00074A"/>
<path d="M88.6265 38.7688C88.6265 38.3866 88.7047 38.0436 88.8613 37.7431C89.0211 37.4426 89.2428 37.2074 89.5265 37.0375C89.8135 36.8676 90.1347 36.7827 90.4918 36.7827C90.857 36.7827 91.1831 36.8709 91.4701 37.044C91.7571 37.2188 91.9756 37.4589 92.1288 37.7627C92.2854 38.0632 92.3636 38.3997 92.3636 38.7688C92.3636 39.1527 92.2821 39.4973 92.1223 39.8011C91.9658 40.1065 91.7457 40.3434 91.4636 40.5132C91.1799 40.6782 90.857 40.7615 90.4918 40.7615C90.1347 40.7615 89.8151 40.6782 89.533 40.5132C89.2493 40.3483 89.0276 40.1131 88.8678 39.8076C88.7064 39.4989 88.6265 39.1527 88.6265 38.7688ZM90.4918 37.5079C90.1738 37.5079 89.9113 37.6304 89.7026 37.8738C89.4939 38.1139 89.3895 38.4013 89.3895 38.7362C89.3895 39.1151 89.4874 39.4271 89.683 39.6704C89.882 39.9154 90.1526 40.0363 90.4918 40.0363C90.8342 40.0363 91.1049 39.9154 91.3005 39.6704C91.4994 39.4271 91.6005 39.1151 91.6005 38.7362C91.6005 38.3964 91.4929 38.1073 91.281 37.8672C91.0722 37.6288 90.8081 37.5079 90.4918 37.5079Z" fill="#00074A"/>
<path d="M94.7983 36.8804V37.5206H93.6569V38.3569H94.7265V38.9972H93.6569V40.6632H92.9199V36.8804H94.7983Z" fill="#00074A"/>
<path d="M97.4285 36.8804V37.5206H96.672V40.6632H95.935V37.5206H95.1719V36.8804H97.4285Z" fill="#00074A"/>
<path d="M100.292 36.8281L101.075 39.4611H101.081L101.825 36.8804H102.595L101.316 40.7416H100.775L100.025 38.2655H100.018L99.3075 40.7416H98.7662L97.5596 36.8804H98.3357L99.0923 39.4611H99.1053L99.8553 36.8281H100.292Z" fill="#00074A"/>
<path d="M104.421 36.7827L105.856 40.6635H105.073L104.78 39.8664H103.469L103.156 40.6635H102.379L103.853 36.7827H104.421ZM103.677 39.2654H104.571L104.101 37.8868H104.095L103.677 39.2654Z" fill="#00074A"/>
<path d="M107.296 36.8804C107.696 36.8804 108.002 36.9784 108.216 37.1744C108.433 37.3704 108.542 37.6513 108.542 38.0172C108.542 38.2883 108.467 38.5235 108.32 38.7228C108.177 38.9188 107.994 39.0347 107.772 39.069L108.835 40.6632H107.942L107.029 39.1409H107.016V40.6632H106.279V36.8804H107.296ZM107.016 38.6182H107.101C107.352 38.6182 107.533 38.5725 107.642 38.481C107.75 38.3863 107.805 38.2377 107.805 38.0368C107.805 37.8408 107.75 37.7003 107.642 37.6121C107.538 37.5255 107.358 37.4814 107.107 37.4814H107.016V38.6182Z" fill="#00074A"/>
<path d="M111.231 36.8804V37.5206H110.011V38.3569H111.185V38.9972H110.011V40.0229H111.231V40.6632H109.274V36.8804H111.231Z" fill="#00074A"/>
</g>
<defs>
<clipPath id="clip0_2902_8423">
<rect width="116" height="42" fill="white"/>
</clipPath>
</defs>
</svg>
