<svg width="71" height="70" viewBox="0 0 71 70" fill="none" xmlns="http://www.w3.org/2000/svg">
<g id="01 align center">
<path id="Vector" d="M39.8281 2.42976C38.7577 1.46562 37.3685 0.932129 35.9283 0.932129C34.4882 0.932129 33.099 1.46562 32.0285 2.42976L0.952637 30.4181V60.7514C0.952637 63.2268 1.93528 65.6008 3.68441 67.3511C5.43353 69.1014 7.80585 70.0848 10.2795 70.0848H61.5772C64.0508 70.0848 66.4231 69.1014 68.1723 67.3511C69.9214 65.6008 70.904 63.2268 70.904 60.7514V30.4181L39.8281 2.42976ZM44.6723 64.2427H27.1844V49.5835C27.1844 47.2629 28.1056 45.0373 29.7454 43.3963C31.3852 41.7554 33.6093 40.8335 35.9283 40.8335C38.2474 40.8335 40.4714 41.7554 42.1112 43.3963C43.751 45.0373 44.6723 47.2629 44.6723 49.5835V64.2427ZM65.0747 60.7427C65.0747 61.6709 64.7063 62.5612 64.0503 63.2176C63.3944 63.8739 62.5048 64.2427 61.5772 64.2427H50.5015V49.5835C50.5015 45.7158 48.9661 42.0065 46.2331 39.2715C43.5001 36.5366 39.7934 35.0002 35.9283 35.0002C32.0633 35.0002 28.3565 36.5366 25.6235 39.2715C22.8905 42.0065 21.3551 45.7158 21.3551 49.5835V64.2427H10.2795C9.35188 64.2427 8.46226 63.8739 7.80633 63.2176C7.15041 62.5612 6.78192 61.6709 6.78192 60.7427V33.0139L35.9283 6.76393L65.0747 33.0139V60.7427Z" fill="#646999"/>
</g>
</svg>
