<svg width="93" height="93" viewBox="0 0 93 93" fill="none" xmlns="http://www.w3.org/2000/svg">
<g id="01 align center">
<path id="Vector" d="M81.375 0H11.625C8.54186 0 5.58499 1.22477 3.40488 3.40488C1.22477 5.58499 0 8.54186 0 11.625L0 93H93V11.625C93 8.54186 91.7752 5.58499 89.5951 3.40488C87.415 1.22477 84.4581 0 81.375 0V0ZM27.125 85.25V65.875C27.125 64.8473 27.5333 63.8617 28.26 63.135C28.9867 62.4083 29.9723 62 31 62H62C63.0277 62 64.0133 62.4083 64.74 63.135C65.4667 63.8617 65.875 64.8473 65.875 65.875V85.25H27.125ZM85.25 85.25H73.625V65.875C73.625 62.7919 72.4002 59.835 70.2201 57.6549C68.04 55.4748 65.0831 54.25 62 54.25H31C27.9169 54.25 24.96 55.4748 22.7799 57.6549C20.5998 59.835 19.375 62.7919 19.375 65.875V85.25H7.75V11.625C7.75 10.5973 8.15826 9.61166 8.88496 8.88496C9.61166 8.15826 10.5973 7.75 11.625 7.75H81.375C82.4027 7.75 83.3883 8.15826 84.115 8.88496C84.8417 9.61166 85.25 10.5973 85.25 11.625V85.25Z" fill="#777DAA"/>
<path id="Vector_2" d="M46.5005 15.4976C43.4349 15.4976 40.4381 16.4066 37.8892 18.1098C35.3402 19.8129 33.3535 22.2337 32.1804 25.066C31.0072 27.8982 30.7003 31.0148 31.2983 34.0215C31.8964 37.0282 33.3726 39.79 35.5403 41.9577C37.7081 44.1254 40.4699 45.6017 43.4766 46.1997C46.4833 46.7978 49.5998 46.4908 52.4321 45.3177C55.2643 44.1445 57.6851 42.1579 59.3883 39.6089C61.0914 37.0599 62.0005 34.0632 62.0005 30.9976C62.0005 26.8867 60.3675 22.9442 57.4607 20.0374C54.5538 17.1306 50.6114 15.4976 46.5005 15.4976ZM46.5005 38.7476C44.9677 38.7476 43.4693 38.293 42.1948 37.4414C40.9203 36.5899 39.927 35.3795 39.3404 33.9634C38.7539 32.5472 38.6004 30.989 38.8994 29.4856C39.1984 27.9823 39.9366 26.6013 41.0204 25.5175C42.1043 24.4336 43.4852 23.6955 44.9885 23.3965C46.4919 23.0974 48.0502 23.2509 49.4663 23.8375C50.8824 24.4241 52.0928 25.4174 52.9444 26.6919C53.796 27.9664 54.2505 29.4648 54.2505 30.9976C54.2505 33.053 53.434 35.0242 51.9806 36.4776C50.5272 37.931 48.5559 38.7476 46.5005 38.7476Z" fill="#777DAA"/>
</g>
</svg>
