<svg width="94" height="93" viewBox="0 0 94 93" fill="none" xmlns="http://www.w3.org/2000/svg">
<g id="01 align center">
<path id="Vector" d="M19.584 73.624H36.8722L90.3072 20.7574C92.5961 18.4873 93.8815 15.4117 93.8815 12.2052C93.8815 8.99876 92.5961 5.92319 90.3072 3.6531C87.9795 1.45169 84.8833 0.223145 81.6632 0.223145C78.443 0.223145 75.3468 1.45169 73.0191 3.6531L19.584 56.5197V73.624ZM27.4173 59.7282L78.5572 9.13235C79.3938 8.34168 80.5062 7.90046 81.6632 7.90046C82.8201 7.90046 83.9325 8.34168 84.7691 9.13235C85.5913 9.9481 86.0531 11.0532 86.0531 12.2052C86.0531 13.3573 85.5913 14.4624 84.7691 15.2781L33.6292 65.874H27.4173V59.7282Z" fill="#777DAA"/>
<path id="Vector_2" d="M92.5156 29.5353L86.1667 35.8166V62H62.6667V85.25H7.83333V11.625C7.83333 10.5973 8.24598 9.61166 8.9805 8.88496C9.71502 8.15826 10.7112 7.75 11.75 7.75H57.8022L64.1511 1.46863C64.7229 0.944042 65.3259 0.453631 65.9567 0L11.75 0C8.63371 0 5.64505 1.22477 3.4415 3.40488C1.23794 5.58499 0 8.54186 0 11.625L0 93H72.1215L94 71.3542V27.7489C93.5405 28.3722 93.0449 28.9687 92.5156 29.5353ZM70.5 83.6458V69.75H84.5452L70.5 83.6458Z" fill="#777DAA"/>
</g>
</svg>
