<svg width="100" height="100" viewBox="0 0 100 100" fill="none" xmlns="http://www.w3.org/2000/svg">
<g id="fi-rs-key" clip-path="url(#clip0_1343_57)">
<path id="Vector" d="M91.6662 -0.000926231H82.6162C80.9741 -0.00560323 79.3473 0.31572 77.8303 0.944417C76.3133 1.57311 74.9361 2.49668 73.7787 3.66157L38.9412 38.4949C32.2715 36.774 25.2209 37.2937 18.8756 39.974C12.5303 42.6543 7.24224 47.3464 3.82591 53.3276C0.409585 59.3089 -0.945467 66.2475 -0.0305218 73.0746C0.884424 79.9017 4.01861 86.2386 8.88928 91.1093C13.7599 95.98 20.0969 99.1142 26.924 100.029C33.7511 100.944 40.6897 99.589 46.671 96.1727C52.6522 92.7563 57.3443 87.4683 60.0246 81.123C62.7049 74.7776 63.2246 67.7271 61.5037 61.0574L66.6662 55.8949V45.8324H79.1662V33.3324H89.2245L96.337 26.2199C97.5015 25.0613 98.4247 23.6833 99.0534 22.1657C99.682 20.6481 100.004 19.0209 99.9995 17.3782V8.33241C99.9995 6.12227 99.1216 4.00265 97.5587 2.43985C95.9959 0.877048 93.8763 -0.000926231 91.6662 -0.000926231ZM91.6662 17.3782C91.6666 17.9261 91.559 18.4686 91.3495 18.9748C91.14 19.481 90.8328 19.9409 90.4454 20.3282L85.7745 24.9991H70.8329V37.4991H58.3329V52.4366L51.8954 58.8741C53.3614 61.9614 54.1363 65.3314 54.1662 68.7491C54.1662 73.2816 52.8222 77.7123 50.304 81.4809C47.7859 85.2495 44.2068 88.1868 40.0194 89.9213C35.8319 91.6558 31.2241 92.1096 26.7787 91.2254C22.3333 90.3412 18.2499 88.1586 15.045 84.9536C11.84 81.7486 9.65743 77.6653 8.77318 73.2199C7.88894 68.7745 8.34276 64.1667 10.0773 59.9792C11.8118 55.7918 14.7491 52.2127 18.5177 49.6946C22.2863 47.1764 26.717 45.8324 31.2495 45.8324C34.6906 45.6075 38.1222 46.3955 41.1204 48.0991L79.6704 9.55324C80.4539 8.77524 81.512 8.33672 82.6162 8.33241H91.6662V17.3782ZM20.8328 74.9991C20.8328 75.8232 21.0772 76.6287 21.5351 77.3139C21.9929 77.9992 22.6436 78.5332 23.405 78.8486C24.1664 79.1639 25.0041 79.2464 25.8124 79.0857C26.6206 78.9249 27.3631 78.5281 27.9458 77.9454C28.5285 77.3626 28.9254 76.6202 29.0861 75.812C29.2469 75.0037 29.1644 74.1659 28.849 73.4046C28.5336 72.6432 27.9996 71.9924 27.3144 71.5346C26.6292 71.0768 25.8236 70.8324 24.9995 70.8324C23.8944 70.8324 22.8346 71.2714 22.0532 72.0528C21.2718 72.8342 20.8328 73.894 20.8328 74.9991Z" fill="#777DAA"/>
</g>
<defs>
<clipPath id="clip0_1343_57">
<rect width="100" height="100" fill="white"/>
</clipPath>
</defs>
</svg>
